<?xml version="1.0" encoding="UTF-8" standalone="no"?>
<!-- Created with Inkscape (http://www.inkscape.org/) -->
<svg id="svg4179" xmlns:rdf="http://www.w3.org/1999/02/22-rdf-syntax-ns#" xmlns="http://www.w3.org/2000/svg" height="431" viewBox="0 0 560 431" width="560" version="1.1" xmlns:cc="http://creativecommons.org/ns#" xmlns:dc="http://purl.org/dc/elements/1.1/">
 <metadata id="metadata4185">
  <rdf:RDF>
   <cc:Work rdf:about="">
    <dc:format>image/svg+xml</dc:format>
    <dc:type rdf:resource="http://purl.org/dc/dcmitype/StillImage"/>
    <dc:title/>
   </cc:Work>
  </rdf:RDF>
 </metadata>
 <path id="path4191" d="m115.84 427.7c-1.84-1.81-6.94-7.26-11.34-12.11-4.4-4.8485-10.25-11.139-13-13.98-2.75-2.8404-8.15-8.5482-12-12.684-3.85-4.14-14.2-15.15-23-24.48-20.061-21.25-27.661-29.37-34.553-36.9-2.996-3.28-8.886-9.47-13.09-13.76l-7.6429-7.81-0.66099-17.07c-0.72883-18.83-0.46946-19.9 4.8193-19.93 6.1826-0.03 5.7946 5.74 5.6966-84.59-0.085-78.59-0.184-82.97-1.8931-84.39-0.9916-0.825-3.4619-2.818-5.4895-4.43l-3.6864-2.93v-24.761c0-13.618 0.3375-24.962 0.75-25.207s3.9-0.758 7.75-1.14c3.85-0.383 12.538-1.306 19.307-2.053l12.307-1.3576 4.2933 3.0262 4.2933 3.0262 10.9-1.1096c5.995-0.61 14.5-1.509 18.9-1.998 34.378-3.8165 56.492-6.2345 65-7.1076 12.476-1.2802 47.497-5.2673 74.5-8.4817 11.275-1.3421 29.05-3.3739 39.5-4.5151 32.63-3.563 94.63-10.958 97.12-11.582 1.81-0.4542 2.38-1.28 2.38-3.4532 0-4.4613 2.6958-5.2273 20-5.6829 17.108-0.45037 16.724-0.52881 40.5 8.2808 5.5 2.0379 13.825 4.96 18.5 6.4936 7.8914 2.5887 20.162 6.8896 57 19.979 13.584 4.8268 32.902 11.596 55 19.273l9.5 3.3003 0.54694 19.465c0.30081 10.706 0.52581 23.065 0.5 27.465l-0.0469 8-4.2355 0.93903-4.2355 0.93903 0.60891 91.561c0.3349 50.359 0.89087 91.857 1.2355 92.219 0.34461 0.36197 2.2016 1.5256 4.1266 2.586l3.5 1.9278v17.885 17.885l-9 1.786c-11.925 2.3664-30.698 6.5972-37.315 8.4097l-5.3153 1.4558-4.7708-3.4275c-7.6894-5.5242-4.77-5.8061-60.099 5.8026-6.875 1.4425-21.275 4.3849-32 6.5387s-26.025 5.3339-34 7.0667c-13.218 2.8721-24.13 5.1145-46.5 9.5558-12.447 2.4713-15.231 3.0127-27 5.2519-6.05 1.1511-17.525 3.4366-25.5 5.0789s-20.125 4.1139-27 5.4924-14.75 2.9842-17.5 3.5681c-2.75 0.58395-14.675 3.0005-26.5 5.3701l-21.5 4.3084-0.29884 6.1933c-0.3717 7.7033 2.2776 6.6143-34.501 14.181-33.913 6.9775-30.709 6.736-34.865 2.6276zm61.66-12.5c3.8733-0.72166 4.0099-0.88333 4.3139-5.1042 0.24259-3.3684 0.002-4.2392-1.0583-3.8323-1.8802 0.72149-13.479 2.9577-37.756 7.2792-21.738 3.8696-21.961 3.9665-21.985 9.5594l-0.0153 3.6022 26.25-5.3795c14.438-2.9587 28.05-5.7149 30.25-6.1248zm-58.5 4.487c0-3.4868-0.57467-4.8635-3-7.1871l-3-2.8742v4.8726c0 3.6266 0.55604 5.4645 2.1743 7.1871 3.09 3.2891 3.8257 2.9048 3.8257-1.9985zm-8.4598-7.6368c-0.47255-5.6214-2.1342-9.4192-3.6982-8.4527-1.9879 1.2286 1.3358 13.402 3.6591 13.402 0.25031 0 0.26787-2.2274 0.039-4.9498zm20.08 0.95c1.1096 0 1.375-3.0996 1.375-16.058v-16.058l-4.25 0.3075-4.25 0.3075-0.27539 16.38-0.2754 16.38 3.1504-0.63008c1.73-0.35 3.77-0.63 4.52-0.63zm-10.62-6.43c0-3.5576-0.50225-4.8225-2.5566-6.4384-2.7956-2.199-12.249-5.6616-13.109-4.8015-1.0334 1.0334 4.2008 5.4466 7.8275 6.5998 2.0139 0.64036 3.937 1.8819 4.2735 2.7591 0.82302 2.1447-0.30681 3.1254-1.4742 1.2795-0.51167-0.80907-0.93721-1.0845-0.94563-0.61199-0.0189 1.0614 4.2057 5.6 5.2347 5.6237 0.4125 0.01 0.75-1.9751 0.75-4.4101zm-17.599-8.0833c-1.0996-1.6783-1.9584-2.2054-2.4079-1.4781-0.9664 1.5637 0.43364 8.5906 2.1193 10.637 2.2351 2.7132 2.5028-5.7794 0.28862-9.1586zm40.959 9.8748c2.55-0.35 4.64-1.08 4.64-1.62 0-6.42 14.17-24.6 28.63-36.74 7.3773-6.1949 31.356-21.043 46.308-28.674 11.848-6.047 11.773-6.1033-3.9947-2.9996-9.0072 1.773-12.607 2.982-16.3 5.4746-2.6071 1.7595-4.9616 3.1991-5.2323 3.1991-0.27064 0-1.0356 0.45326-1.6999 1.0072-0.66428 0.55399-5.5428 4.2665-10.841 8.25-9.8349 7.3943-16.774 12.974-19.718 15.857-2.5542 2.5007-26.104 20.791-28.245 21.937-1.5924 0.85223-1.9042 2.1594-1.9042 7.9839 0 7.7907-0.3533 7.5232 8.3604 6.3289zm19.279-3.7805c4.3233-0.77903 9.6271-1.7143 11.786-2.0783 2.861-0.48235 5.1755-1.929 8.5331-5.3336 23.051-23.374 49.221-42.235 78.627-56.668 9.8528-4.836 18.814-9.1319 19.914-9.5464 1.1-0.41457 3.575-1.4352 5.5-2.268 1.925-0.83286 5.88-2.2863 8.7888-3.2298 9.1866-2.9798 5.3157-2.5261-21.339 2.5006-29.151 5.4975-26.7 4.831-39.314 10.69-5.1499 2.3922-9.7369 4.3494-10.193 4.3494-0.45638 0-1.4476 0.8821-2.2028 1.9602-0.75515 1.0781-8.5532 6.3656-17.329 11.75-8.77 5.38-17.92 11.14-20.31 12.79-10.56 7.27-31.1 30.42-31.1 35.05 0 1.7494-0.8645 1.746 8.6395 0.0334zm-65.303-7.3771c-0.64873-4.9804-1.9815-7.5441-3.4501-6.6365-1.4657 0.90582-1.0011 6.4277 0.79679 9.4713 2.3164 3.9213 3.3846 2.7799 2.6533-2.8348zm104.67-0.28c7.9714-1.6956 16.172-3.3286 18.223-3.6289 2.2929-0.3357 4.9891-1.7542 7-3.6827 7.36-7.07 33.33-26.61 35.35-26.61 0.25327 0 2.349-1.1921 4.6571-2.6492 5.6346-3.557 23.394-12.276 33.264-16.331 10.855-4.4599 11.295-4.6291 17-6.5303 2.75-0.91648 5.6898-2.0192 6.5328-2.4505 0.84306-0.43131 3.0931-1.0926 5-1.4696 1.907-0.37697 4.3672-1.0743 5.4672-1.5496 7.2645-3.1389 52.759-14.385 65-16.068 23.591-3.2434 30.58-3.7375 63-4.4543 44.32-0.97979 58.615-1.9466 75.75-5.123l8.75-1.622v-3.9639-3.964l-6.7746 0.38969c-3.726 0.21433-7.3153 0.72387-7.9762 1.1323-1.9269 1.1909-8.909 1.565-40.749 2.1833-16.5 0.32044-31.575 0.73444-33.5 0.91998-1.925 0.18555-8.9 0.63755-15.5 1.0044-28.509 1.5848-50.629 3.7885-66.5 6.625-32.112 5.739-51.991 9.8648-59.5 12.349-2.2 0.72775-6.475 2.0925-9.5 3.0328s-6.4 2.0894-7.5 2.5536c-1.1 0.46417-4.7 1.81-8 2.9908-15.871 5.679-53.067 24.747-61 31.271-0.55 0.45231-4.15 3.0695-8 5.816-7.6314 5.444-7.5454 5.3781-15.515 11.888-7.4192 6.0599-18.23 16.076-20.857 19.324-1.8828 2.3275-1.3694 2.2827 15.879-1.3862zm335.66-92.584c-2.1769-2.1769 0.75563-6.876 3.608-5.7814 1.967 0.75482 2.8102 3.9632 1.4096 5.3638-1.2095 1.2095-3.994 1.4413-5.0177 0.41766zm-417.67 93.09c0-3.874-7.6381-8.8922-17.3-11.366-3.96-1.0139-7.9874-2.1672-8.9499-2.5628-2.835-1.1653-2.0176 0.60754 1.96 4.2508 4.6093 4.222 5.377 4.5975 12.79 6.2564 3.3 0.73849 6.8876 1.9378 7.9725 2.6651 2.078 1.393 3.5275 1.704 3.5275 0.75661zm-30.939-12.81-2.061-2.06v4.4997c0 2.6769 0.70893 5.5013 1.75 6.9722l1.75 2.4725 0.31136-4.9109c0.24696-3.8951-0.11499-5.3372-1.75-6.9722zm51.664 0.31447c-0.95585-1.5306-0.87184-2.2132 0.43296-3.518 1.6969-1.6969 5.842-1.1732 5.842 0.73803 0 0.83508 7.2581-4.1512 9-6.183 0.275-0.32076 4.325-3.6919 9-7.4915s9.625-7.9475 11-9.2176 4.3-3.5343 6.5-5.0315 4.225-2.9685 4.5-3.2694c0.275-0.30094 3.3638-2.4397 6.864-4.7528s6.1372-4.2057 5.8601-4.2057c-0.27713 0-4.8779 0.9-10.224 2s-9.8635 2-10.039 2c-0.17517 0-0.91339 0.5625-1.6405 1.25-0.7271 0.6875-3.1217 2.7808-5.3214 4.6519-2.1997 1.871-7.5994 6.667-11.999 10.658-13.506 12.25-14.831 13.363-20.25 17.012-5.031 3.388-5.25 3.7231-5.25 8.0329v4.4974l3.4555-2.6357c2.9894-2.2802 3.2956-2.8918 2.2696-4.5347zm-20.72 3.68c0-4.2894-3.3256-7.3097-6.2972-5.7193-3.0368 1.6253-4.7028 0.79564-4.7028-2.3419 0-2.8236-3.7371-4.516-15.5-7.0194-4.4-0.93641-9.499-2.3772-11.331-3.2018-4.9667-2.2353-4.8674-1.0135 0.30496 3.7542 4.2926 3.9568 14.054 8.9154 17.526 8.9027 2.7632-0.0101 14.043 4.3866 15.782 6.1514 2.4427 2.4798 4.2184 2.2584 4.2184-0.52586zm128.62-1.1572c18.624-3.5817 21.766-4.5949 25.885-8.3465 41.738-38.018 119.05-63.824 164-54.745 1.1 0.22216 5.6 0.69462 10 1.0499 4.4 0.3553 12.275 1.164 17.5 1.797 14.14 1.7131 42.135 1.4375 49.5-0.48729 3.3-0.86247 10.445-2.7277 15.878-4.1449 5.43-1.41 10.9-2.57 12.14-2.57 1.2456 0 2.5379-0.7118 2.8718-1.5818 0.9-2.34 0.74-10.42-0.21-10.42-0.44899 0-3.2615 0.43668-6.25 0.9704-12.783 2.283-37.103 4.0747-62.347 4.5934-35.009 0.71938-57.492 1.9806-70.586 3.9598-11.822 1.7869-42.704 8.2678-45 9.4438-0.825 0.42256-3.975 1.3312-7 2.0192-8.2606 1.8788-20.422 5.471-30.5 9.0088-9.0725 2.5956-16.775 6.7104-24.167 10.081-11.344 3.2608-17.146 8.0048-26.187 13.655-22.53 13.978-42.375 29.558-35.395 27.788 1.5125-0.38357 5.9518-1.3132 9.8652-2.0658zm-163.64-1.7c-0.01718-3.7871-1.8815-7.8927-3.8843-8.5541-1.1193-0.3696-1.2629 0.38964-0.71816 3.7963 1.2206 7.6332 4.6315 11.159 4.6025 4.7578zm-8.464-13.36c-0.88487-1.3505-2.0243-2.1986-2.5322-1.8848-1.2456 0.76984-0.12772 6.4056 1.883 9.4931l1.6282 2.5 0.31492-3.8264c0.19036-2.313-0.32141-4.7976-1.2939-6.2819zm39.473 5.5326c-5.4478-4.5561-12.119-8.018-15.861-8.2304-4.4856-0.25469-5.2031 1.9172-0.93555 2.832 3.4657 0.7429 13.332 5.3306 17.021 7.9143 3.6567 2.5613 3.4802 0.58246-0.22439-2.5158zm169.01 2.16c22.283-4.1791 32.49-6.8217 32.224-8.3431-0.25596-1.4663 7.5434-8.0665 13.791-11.67 6.6295-3.8244 19.663-10.039 21.081-10.052 0.878-0.008 3.0816-0.75559 4.8969-1.6612 1.983-0.98924 6.3357-1.7506 10.904-1.9071 4.1817-0.1433 11.878-1.1478 17.103-2.2321 10.954-2.2734 8.9434-2.0738 24.954-2.4764 13.505-0.33961 23.335 0.43345 35.046 2.7562 7.4589 1.4793 7.5877 1.4682 23.5-2.0396 8.8-1.9399 23.65-5.0781 33-6.9738s19.925-4.1193 23.5-4.9414c3.575-0.82211 9.7645-2.0565 13.754-2.7431 6.5588-1.1287 9.9958-3.3792 8.0826-5.2924-0.40309-0.40309-15.799 2.6756-27.337 5.4666-20.405 4.9357-39.403 6.1596-56.5 3.6399-1.925-0.28371-9.125-1.2501-16-2.1476s-14.75-2.0114-17.5-2.4754c-17.23-2.9069-66.072 3.8906-79.736 11.097-0.95504 0.50367-2.5525 0.91577-3.55 0.91577-0.99746 0-2.2411 0.37788-2.7636 0.83972-0.5225 0.46185-2.525 1.4359-4.45 2.1645-12.938 4.8971-42.098 21.778-50.087 28.996-0.91316 0.825-2.9547 2.496-4.5369 3.7133-6.7121 5.1643-8.9456 7.4029-6.8766 6.8921 1.1-0.27161 4.475-0.95801 7.5-1.5253zm-144.86-4.1671c1.8457-1.6979 5.3333-4.9604 7.7502-7.25 2.417-2.2896 4.0369-3.4879 3.5998-2.6629-0.43705 0.825 0.73545 0.11011 2.6055-1.5886 1.8701-1.6988 5.325-4.82 7.6776-6.936 10.982-9.8778 11.73-10.658 9.7226-10.13-1.1 0.28909-8.75 1.776-17 3.3044-8.25 1.5283-15.595 3.3573-16.321 4.0644-0.72678 0.70713-1.7393 1.2857-2.25 1.2857-0.5176 0-0.92857 5.0897-0.92857 11.5 0 12.575 0.22328 12.94 5.1442 8.4129zm-11.14 1.17c0-0.50416-0.40415-1.0667-0.89811-1.25-0.91-0.34-19.32-16.66-33.063-29.33-11.242-10.36-25.098-22.85-28.717-25.89-1.749-1.4686-4.6809-4.1192-6.5154-5.8903-1.8345-1.771-6.2535-5.7633-9.82-8.8718s-8.08-7.1585-10.03-9-6.225-5.6775-9.5-8.5243c-3.275-2.84-8.655-7.66-11.955-10.71-4.416-4.07-6.785-5.54-8.9741-5.57-3.2766-0.04 2.2861 5.83 26.477 27.96 5.7118 5.225 13.774 12.65 17.917 16.5 8.1906 7.6121 18.834 17.406 20.647 19 0.62577 0.55 6.0305 5.5 12.01 11 5.98 5.5 13.094 12.025 15.809 14.5 2.7149 2.475 7.9011 7.3006 11.525 10.724 6.33 5.98 15.09 9.09 15.09 5.36zm-59.978-12.49-2.109-2.09 0.68 4.5c1.107 7.3175 2.8342 9.5118 3.2217 4.093 0.24515-3.4279-0.15334-4.872-1.7937-6.5zm62.978 8.58c0-1.3548-4.936-5.5716-5.6667-4.841-0.371 0.37101 0.38067 1.7978 1.6704 3.1706 2.3618 2.514 3.9963 3.1972 3.9963 1.6704zm216.26-6.18c11.132-2.2031 23.614-4.6618 27.739-5.4638 4.125-0.80197 14.025-2.832 22-4.5111 7.975-1.6792 20.35-4.1995 27.5-5.6007 17.118-3.3547 17.786-3.5332 16.823-4.4949-7.2777-7.2728-65.568-1.5773-88.974 8.6935-1.7331 0.76052-3.4228 1.3828-3.7549 1.3828-0.33208 0-2.9358 1.125-5.786 2.5s-5.773 2.5-6.4951 2.5c-0.72207 0-1.3128 0.45-1.3128 1s-0.48002 1-1.0667 1c-1.4368 0-7.9333 5.0105-7.9333 6.1187 0 1.1668-1.6347 1.407 21.261-3.1244zm-257.44 1.44c-0.178-0.86-3.023-2.78-6.323-4.27-12.161-5.47-17.997-10.59-20.943-18.35-0.979-2.57-2.405-4.92-3.168-5.21-0.855-0.33-1.389-2.03-1.389-4.42 0-4.9456-1.6986-9.851-3.6736-10.609-0.84363-0.32374-1.3003-1.1972-1.0149-1.9411 0.49307-1.2849-5.1208-7.1806-18.435-19.36l-5.6234-5.1442-7.3766 0.0399c-8.3222 0.045-11.154-0.80487-15.178-4.5552-5.8598-5.4611-5.0312-1.398 0.95272 4.6714 4.116 4.17 5.147 4.71 8.963 4.71 5.8407 0 13.794 3.1535 20.157 7.9921 2.8987 2.2044 5.9503 4.0079 6.7814 4.0079s1.7685 0.7875 2.0831 1.75c0.31458 0.9625 1.6341 3.775 2.9322 6.25s3.3226 6.525 4.499 9c8.2718 17.404 11.666 23.513 14.939 26.885 6.4999 6.6977 22.751 13.065 21.819 8.5485zm41.177-0.43c0-0.55-0.9-1.9-2-3-1.9954-1.9954-4-2.6395-4-1.2852 0 0.91064 4.2543 5.1445 5.25 5.2247 0.41 0.03 0.75-0.39 0.75-0.94zm-66.709-3.7261c-0.24267-1.5256-0.93796-3.795-1.5451-5.043-1.469-3.0196-2.8157-0.89187-2.0392 3.222 1.0692 5.6649 4.4706 7.3929 3.5843 1.821zm38.268 2.1943c-1.0676-0.80751-3.7676-1.4726-6-1.478-10.284-0.01-20.61-8.86-28.465-24.37-4.803-9.48-8.43-14.61-10.337-14.61-1.3627 0 0.18425 4.1135 2.9203 7.7653 1.5387 2.0537 2.2221 3.9724 1.8416 5.1709-3.1424 9.9008 22.291 28.305 39.98 28.93 1.973 0.0697 1.9738 0.0508 0.0589-1.3975zm19.41-28.71-0.02-28.25-3.06-3.5c-2.8177-3.2272-3.0118-3.3051-2.4889-1 2.3888 10.532 2.799 20.299 1.5834 37.707-1.1614 16.631-1.1272 18.427 0.39499 20.75 3.3319 5.0851 3.6208 3.0185 3.5934-25.707zm9.03 24.44c0-0.9971-1.35-3.1063-3-4.6871-3.7778-3.6194-4.3564-0.68881-0.73659 3.7307 2.6148 3.1925 3.7366 3.4796 3.7366 0.95641zm-34-0.0517c0-0.47553-4.8375-5.1574-10.75-10.404-5.9125-5.2468-12.301-11.158-14.196-13.135-4.9523-5.1673-5.4983-4.441-1.6197 2.1542 2.5781 4.3837 4.0569 5.8733 6.2237 6.269 2.4052 0.43922 2.8421 0.99903 2.8421 3.6414 0 4.0026 2.7289 7.026 9 9.9716 5.1586 2.423 8.5 3.014 8.5 1.5034zm-38.571-3.89c-0.95-5.39-3.429-7.84-3.429-3.4 0 3.63 1.517 7.15 3.08 7.15 0.61824 0 0.7534-1.4549 0.3484-3.75zm57.314-6.5c3.6523-22.332-1.9134-64.217-11.129-83.75-2.3582-4.9984-2.5828-6.5488-2.4633-17l0.13154-11.5 0.91637 11c0.7801 9.3644 1.5623 12.636 5.2602 22 2.3891 6.05 4.8607 14.155 5.4925 18.012 0.92736 5.6608 1.8188 7.7803 4.6266 11l3.4779 3.9882-0.27807-13.671c-0.24738-12.162-0.50572-13.928-2.3415-16-11.325-12.784-15.516-34.318-10.38-53.329 4.4402-16.435 6.1054-26.081 5.5239-32-0.27015-2.75-0.51137-5.7875-0.53604-6.75-0.22586-8.8126-3.2866 3.6327-5.0387 20.488-0.55675 5.3559-2.1231 13.047-3.4808 17.092-1.8165 5.4112-2.3549 8.7823-2.0384 12.762l0.43018 5.4082-0.89546-4.5c-1.1116-5.5862-0.31594-12.699 1.7899-16 0.99934-1.5666 2.4472-9.2204 3.878-20.5l2.2832-18-2.5422-2.25c-2.4586-2.176-5.0753-3.1021-4.0422-1.4306 3.7631 6.0888-1.4761 35.137-8.097 44.892-8.0129 11.807-7.5046 34.966 0.90676 41.315 6.5241 4.9245 10.619 28.185 11.644 66.138 0.62579 23.176 0.87597 25.867 2.5803 27.75 2.7745 3.0658 3.0229 2.7688 4.3204-5.1645zm-62.74 1.82c0-3.6-1.752-7.57-3.341-7.57-1.4275 0-0.91537 6.1582 0.73409 8.8271 1.222 1.97 2.607 1.3 2.607-1.26zm78 1.2494c0-1.38-3.95-5.82-5.17-5.82-1.5223 0-0.84602 2.3495 1.3486 4.6856 2.3857 2.5395 3.8257 2.9644 3.8257 1.1289zm-23.597-2.9715c-0.3933-0.63638-0.68988-10.649-0.65907-22.25 0.035-13.181-0.46898-24.657-1.3435-30.593-0.76975-5.225-1.8135-12.286-2.3194-15.691-0.64457-4.3381-2.8868-10.174-7.492-19.5-9.8343-19.915-10.073-26.855-1.4404-41.829 9.9194-17.205 12.784-48.159 4.7386-51.202-1.3699-0.51815-1.6958 0.54457-2.1632 7.056-0.36099 5.0287-1.8358 11.45-4.2868 18.666-5.3823 15.845-5.6885 18.221-6.1158 47.45l-0.38665 26.45 2.9767 5.5849c6.4545 12.11 7.6216 19.049 7.2956 43.375-0.32553 24.291-0.40747 23.92 6.7235 30.367 3.5727 3.2297 5.8169 4.2916 4.4724 2.1162zm-50.195-5.5c-1.064-2.12-2.51-5.65-3.215-7.85-0.704-2.2-1.552-4.22-1.885-4.5s-1.955-3.09-3.605-6.25c-1.8397-3.524-3.6508-5.7479-4.6826-5.75-0.92544-0.002-1.9956-1.016-2.3782-2.2535-1.785-5.77-23.1-17.42-26.203-14.32-0.882 0.88 1.909 3.57 3.708 3.57 4.0218 0 11.854 3.6074 15.545 7.1604 2.1943 2.1118 3.516 3.8396 2.9371 3.8396-0.57894 0-2.3345-1.338-3.9012-2.9733-2.6891-2.8069-12.038-6.848-13.186-5.6998-0.90574 0.90575 5.9304 6.6291 10.66 8.9249 5.6475 2.7413 12.738 9.8653 16 16.076 4.4605 8.4921 14.29 18.142 10.205 10.019zm84.102 3.7169c2.306-0.51489 12.068-2.349 21.693-4.0757 45.719-8.2022 76.753-14.196 87.75-16.947 12.441-3.1126 26.211-6.745 33.75-8.9029 3.85-1.1021 9.7-2.7343 13-3.6272 3.3-0.89285 7.8-2.2293 10-2.9699 2.2-0.74061 8.725-2.7985 14.5-4.5732 8.54-2.6243 28.539-9.2175 58-19.121 1.925-0.64709 4.918-1.7775 6.6511-2.512s3.8767-1.3355 4.7636-1.3355c0.88684 0 2.3938-0.4101 3.3489-0.91134 0.95504-0.50124 3.9864-1.6612 6.7364-2.5777 2.75-0.91648 5.9-2.0338 7-2.4829 1.1-0.44911 4.25-1.5816 7-2.5167 2.75-0.93507 6.35-2.288 8-3.0064 1.65-0.71846 5.025-1.9842 7.5-2.8127 4.031-1.3494 17.286-6.4092 22.5-8.5886 1.1-0.45983 3.125-1.3004 4.5-1.8679 3.922-1.6188 9.0634-3.8313 14.5-6.2398 7.1785-3.1802 35.906-17.312 36.5-17.955 0.275-0.29778 2.75-1.6987 5.5-3.1132 5.8606-3.0144 15.732-8.4854 20-11.084 1.65-1.0048 3.675-2.143 4.5-2.5295 0.825-0.38645 2.0545-1.2501 2.7321-1.9193 0.67768-0.66917 1.7101-1.376 2.2942-1.5707 0.66697-0.22233 0.95263-3.3957 0.76785-8.5299l-0.29424-8.1759-7 6.4889c-3.85 3.5689-10.6 9.1756-15 12.459-4.4 3.2838-8.45 6.3224-9 6.7522-0.55 0.42986-1.675 1.1002-2.5 1.4897s-3.075 1.6754-5 2.8575c-8.6942 5.3391-20.413 10.783-21.038 9.7721-4.709 2.9266-6.9063 4.7801-10.192 6.33-7.9072 3.6646-14.919 6.6685-23.77 10.183-5.225 2.0748-10.4 4.1369-11.5 4.5826-1.1 0.44569-4.25 1.5679-7 2.4938-2.75 0.92589-5.9 2.0382-7 2.4719-1.1 0.43365-4.25 1.553-7 2.4874-13.129 4.4612-20.897 7.3249-26.784 9.874-2.0812 0.90124-4.4498 1.6386-5.2636 1.6386s-2.261 0.42914-3.2161 0.95365c-2.0316 1.1158-25.385 8.8615-36.236 12.019-4.125 1.2002-8.1898 2.5401-9.0328 2.9777-0.84306 0.43751-3.0931 1.1039-5 1.4809-1.907 0.37697-4.3672 1.0927-5.4672 1.5904-1.1 0.49776-4.7 1.6268-8 2.509-3.3 0.88221-8.925 2.4448-12.5 3.4724-21.04 6.0478-24.935 7.1355-45 12.566-15.352 4.1551-31.815 8.4835-42 11.043-22.867 5.7464-30.039 7.5827-38.5 9.8571-4.95 1.3306-11.7 2.9448-15 3.587-3.3 0.64222-6.7619 1.5694-7.6931 2.0604-0.9312 0.49102-6.7047 1.9767-12.83 3.3014-10.57 2.27-14.4 3.57-10.59 3.57 0.94812 0 3.6106-0.42128 5.9167-0.93617zm395.15-135.13c-1.1171-1.8074 0.44193-5.7788 2.5285-6.4411 2.6918-0.85434 4.0066 0.13729 4.0066 3.0217 0 3.3358-4.9772 5.94-6.5351 3.4193zm-489.94 130.31c-1.147-6.14-4.522-8.73-4.522-3.47 0 2.98 2.445 7.22 4.168 7.22 0.67655 0 0.80338-1.3443 0.35381-3.75zm84.478 1.43c0-1.2-4.34-5.68-5.51-5.68-1.2224 0-0.29634 2.5798 1.6819 4.6856 2.4416 2.599 3.8257 2.9589 3.8257 0.99479zm5.8157 0.42372c0.92634-0.49277 6.6343-2.04 12.684-3.4383 16.607-3.8383 87.033-21.893 113.5-29.098 5.225-1.4223 12.65-3.4379 16.5-4.4792s11.05-3.0938 16-4.5611 11.25-3.3045 14-4.0826c12.8-3.6219 18.116-5.1725 19.5-5.6877 0.825-0.30724 4.875-1.5539 9-2.7704s13.575-4.1843 21-6.595c7.425-2.4108 15.75-5.0984 18.5-5.9726 2.75-0.87415 5.9-1.9651 7-2.4243 5.6664-2.3655 16.399-6.0401 19.336-6.6205 1.8348-0.36253 3.5704-1.2702 3.857-2.017 0.28657-0.7468 1.63-1.3578 2.9855-1.3578 1.3554 0 3.1394-0.675 3.9644-1.5 1.295-1.295 4.989-2.0614 7.6815-1.5936 0.45338 0.0788 0.56195-0.28134 0.24127-0.80021s0.7754-1.2418 2.4357-1.6064c1.6603-0.36467 4.3815-1.3428 6.047-2.1737 1.6655-0.83086 3.686-1.2582 4.4899-0.94972 0.80397 0.30851 1.472 0.0125 1.4846-0.65768 0.0126-0.67024 4.1751-2.9692 9.25-5.1088 15.855-6.6842 58.827-28.328 67.727-34.112 4.675-3.038 9.8712-6.1609 11.547-6.9397 5.6145-2.609 18.279-16.512 13.904-15.265-1.073 0.30609-3.526 0.83512-5.451 1.1756-13.288 2.3504-17.562 3.8968-22.175 8.0212-19.351 17.302-44.057 32.201-80.825 48.742-8.8126 3.9645-13.528 6.0314-15.5 6.7943-1.1 0.42552-4.025 1.6535-6.5 2.729-2.475 1.0754-9 3.6353-14.5 5.6887-10.294 3.8434-11.942 4.4749-16.902 6.4784-3.03 1.224-25.454 8.6646-34.098 11.314-18.608 5.7034-32.073 9.5868-46 13.266-5.5 1.453-11.125 3.0515-12.5 3.5523-1.375 0.50079-6.1 1.7776-10.5 2.8373-4.4 1.0598-13.4 3.3522-20 5.0943s-16.05 4.2367-21 5.5436-13.275 3.4809-18.5 4.8312-13.775 3.5984-19 4.9957-14 3.7251-19.5 5.1729c-14.468 3.8082-31.232 8.2617-37 9.8292-3.0937 0.84069-5.1233 1.9843-5.3233 2.9995-0.36695 1.8621 0.22474 2.0291 2.6391 0.74485zm383.23-5.226c10.246-2.3001 12.381-2.7668 24.453-5.347 9.1356-1.9525 10.25-2.6103 10.25-6.0497 0-2.7358-1.9684-3.2226-5.953-1.4723-1.2634 0.55497-10.622 2.7163-20.797 4.803l-18.5 3.794-0.31336 3.197c-0.37181 3.7933-0.98106 3.733 10.86 1.075zm-480.05-3.25c0-3.2348-2.3536-6.6022-3.6844-5.2714-0.891 0.89 1.553 8.65 2.724 8.65 0.528 0 0.96-1.52 0.96-3.38zm54.519-35.75c-0.532-7.43-5.244-23.99-7.456-26.21-0.751-0.75-1.063 7.53-1.063 28.2v29.259l3.75 3.8929 3.75 3.8929 0.78255-15.701c0.4304-8.6358 0.53686-19.135 0.23657-23.332zm36.481 36.19c0-2.69-2.9-6.06-5.22-6.06-1.641 0-0.67443 4.3268 1.4725 6.5918 2.9644 3.1274 3.75 3.0153 3.75-0.53508zm17.26-0.71734c1.0427-0.6444 12.598-3.6433 28.74-7.4585 4.675-1.105 9.4-2.4254 10.5-2.9342 1.1-0.50884 5.6-1.788 10-2.8425s12.5-3.1104 18-4.5684c16.259-4.3105 32.386-8.561 42-11.07 11.201-2.9229 29.749-7.88 39-10.423 3.85-1.0582 10.375-2.847 14.5-3.9751 11.095-3.0341 20.301-5.677 22-6.3158 0.825-0.31015 6.9-2.2338 13.5-4.2748 13.232-4.0918 19.963-6.2801 23-7.4775 1.1-0.43365 4.25-1.546 7-2.4719 2.75-0.92589 5.9-2.0547 7-2.5085s5.15-2.0464 9-3.5391c10.703-4.1497 10.735-4.1627 15-5.9971 2.2-0.94633 5.575-2.389 7.5-3.206 30.044-12.751 59.846-28.03 71.635-36.727 2.2744-1.6778 5.1289-3.7255 6.3433-4.5505 2.2713-1.543 2.89-2.0362 10.034-8 2.306-1.925 5.1591-4.3023 6.34-5.2828 2.504-2.0791 3.0423-2.134-17.811 1.8154-11.679 2.2119-12.027 2.3546-14.926 6.1161-2.662 3.4536-16.42 17.277-19.786 19.88-8.1601 6.31-24.494 15.616-35.83 20.415-4.125 1.746-8.625 3.6584-10 4.2496-1.375 0.59126-3.625 1.525-5 2.075l-5 2c-5.1361 2.0545-6.6666 2.6321-13.5 5.0953-11.217 4.0434-24.714 8.3775-28.5 9.152-1.925 0.39379-3.95 1.0652-4.5 1.4921-0.55 0.42688-3.7 1.3253-7 1.9965-3.3 0.67119-6.7331 1.6067-7.6291 2.0789-0.89601 0.47219-5.396 1.7337-10 2.8033s-14.671 3.6088-22.371 5.6426-18.275 4.7409-23.5 6.0158c-29.08 7.0957-35.128 8.6075-41.5 10.375-9.2097 2.5551-66.971 14.932-73.17 15.678-2.6568 0.31993-9.1054 1.417-14.33 2.4379-5.225 1.0209-12.088 2.1379-15.25 2.4822l-5.75 0.62592v7.3059 7.3059l6.6068-1.3849c3.6338-0.7617 7.0776-1.6759 7.6531-2.0315zm-9.26-7.17c0-3.3274 2.4232-4.897 4.675-3.0282 2.3509 1.9511 1.2106 5.3104-1.925 5.6712-2.4518 0.28211-2.75-0.004-2.75-2.643zm-105 1.9084c0-1.605-0.27314-3.63-0.60699-4.5-0.82794-2.1576-3.291-2.0127-2.8596 0.16821 1.198 6.0567 1.6071 7.25 2.4857 7.25 0.54 0 0.981-1.31 0.981-2.92zm11 2.6125c0-1.0953-5.3236-7.17-8.4859-9.6831-6.3783-5.0688-6.0633-3.3601 0.63318 3.4353 5.49 5.58 7.853 7.46 7.853 6.25zm38.97-17.44c-0.035-15.72-1.505-16.3-2.579-1.01-0.683 9.71-0.126 14.76 1.628 14.76 0.59518 0 0.96899-5.4074 0.95054-13.75zm47.03 12.44c0-0.72157-1.35-2.31-3-3.5299-3.4722-2.5671-4.4377-0.40423-1.345 3.0131 1.9248 2.1269 4.345 2.4148 4.345 0.5168zm-102.01-1.44c-0.0172-2.3129-2.2263-8.2248-2.9144-7.7995-0.73909 0.45678-0.50008 4.1713 0.46968 7.2995 0.41439 1.3367 2.454 1.7539 2.4447 0.5zm50.319-10.609c0.33812-5.1474 1.4071-11.56 2.3756-14.25 1.7247-4.7909 2.7877-36.389 1.2242-36.391-0.79963-0.00072-6.333 20.456-8.4851 31.369-1.8375 9.3182-1.1557 19.744 1.7014 26.014 1.9613 4.3047 2.5385 3.0824 3.1839-6.7431zm51.687 4.98c0-2.04-3.49-5.62-5.46-5.62-1.3562 0-0.3175 3.6028 1.6391 5.6856 2.769 2.9475 3.8257 2.928 3.8257-0.0705zm-107.52-1.87c-0.37149-1.7875-1.8076-4.375-3.1914-5.75l-2.516-2.5 0.66777 3.8058c0.63371 3.6117 3.0848 7.43 4.8857 7.6109 0.4562 0.0458 0.52551-1.3792 0.15403-3.1667zm130.81-0.14051c17.712-2.7558 75.127-15.123 107.21-23.092 16.942-4.2087 36.885-9.3289 73.5-18.871 5.225-1.3616 14.9-4.1212 21.5-6.1325s13.876-4.1422 16.168-4.7352c2.2923-0.59308 5.6673-2.3599 7.5-3.9263s3.8794-2.849 4.5482-2.8503c0.66884-0.001 2.9188-0.73972 5-1.641 2.0812-0.90123 4.6839-1.966 5.7839-2.3662 6.6222-2.4092 18.247-7.3468 24.946-10.596 2.7205-1.3195 5.4955-2.399 6.1667-2.399 0.67118 0 1.3703-0.3375 1.5537-0.75 0.18333-0.4125 3.8566-2.5263 8.1628-4.6974 11.469-5.7826 35.446-26.11 33.314-28.243-2.0302-2.0302-13.357 2.085-18.143 6.5918-2.75 2.5895-7.7 6.5277-11 8.7515-5.7188 3.8538-8.9806 5.753-25 14.556-6.4351 3.5364-25.281 12.811-30 14.764-1.1 0.45521-4.025 1.7181-6.5 2.8065-6.0537 2.6621-35.212 12.405-47 15.704-5.225 1.4624-12.425 3.4957-16 4.5185-34.627 9.9062-55.899 14.764-94 21.467-8.525 1.4998-24.5 4.4335-35.5 6.5194-30.502 5.784-38.403 7.1199-45.748 7.7357l-6.75 0.57v4.6876 4.6876l5.25-0.76588c2.8875-0.42123 9.6576-1.4517 15.045-2.2899zm400.71-5.18c0-8.315-0.0669-8.5601-2.25-8.25-3.75 0.53-4.03 16.82-0.29 16.82 2.52 0 2.54-0.06 2.54-8.57zm-482.46 3.82c-3.1079-8.0218-0.51584-25.348 7.2183-48.25 2.8648-8.4829 4.585-39.932 2.4259-44.35-0.57804-1.1826-2.0027-4.3962-3.1659-7.1411-1.1632-2.745-3.4109-7.02-4.9948-9.5-6.9398-10.866-10.531-25.612-11.508-47.254-0.77612-17.191-1.8923-21.373-7.0969-26.592-5.4744-5.4894-9.3944-2.8705-5.0356 3.3642 2.4517 3.5069 4.2614 15.749 5.1138 34.594 0.91495 20.227 9.078 45.205 18.357 56.172 6.587 7.79 9.035 11.71 7.307 11.71-8.2558 0-27.156-43.703-27.158-62.799-0.0011-8.6877-1.7941-27.659-3.0629-32.409-1.4518-5.4342-2.6934-5.4389-2.2579-0.009 0.20804 2.594 0.47803 21.366 0.59997 41.716l0.22171 37 2.7554 3.8974c6.8455 9.683 8.9041 29.137 4.8255 45.603-1.158 4.675-2.3739 13.225-2.702 19l-0.59647 10.5 4.1088 3.953 4.11 3.96 0.01832-8.953c0.02675-13.075 2.4625-28.134 6.4657-39.974 4.452-13.18 4.448-13.24-1.234-20.71-9.419-12.39-21.171-37.32-16.117-34.2 0.477 0.3 0.867 1.4 0.867 2.46 0 3.6948 13.528 27.659 17.452 30.916 5.2845 4.3857 5.4826 8.8659 0.9762 22.073-3.9931 11.703-6.3793 26.753-6.4091 40.424l-0.019 8.97 3.7029 3.7922c3.9589 4.0543 5.9363 4.8898 4.833 2.0422zm239.96-2.34c26.021-5.0157 30.973-6.0823 32-6.8919 0.55-0.43378 2.5602-1.1229 4.4672-1.5313 1.9069-0.40845 4.1569-1.0951 5-1.5259 0.84305-0.43082 10.083-3.5457 20.533-6.9219s19.9-6.5295 21-7.0072c1.1-0.47772 6.275-2.2927 11.5-4.0332s10.4-3.52 11.5-3.9542c1.1-0.4343 11.45-4.5088 23-9.0544 30.771-12.11 62.505-27.216 89.013-42.371 13.61-7.781 14.724-8.7073 14.321-11.903l-0.33-2.65-4.5 2.8c-2.475 1.5418-7.2 4.2996-10.5 6.1284s-7.575 4.223-9.5 5.3204c-6.1098 3.4833-41.315 21.104-46 23.024-2.475 1.0141-6.075 2.5296-8 3.3677-11.125 4.8434-14.946 6.4123-22.5 9.2376-3.3 1.2342-6.9 2.614-8 3.0663-1.1 0.45228-5.375 2.0195-9.5 3.4827s-8.4 3.0372-9.5 3.4979c-1.1 0.46063-6.275 2.2616-11.5 4.0021s-10.4 3.5485-11.5 4.0176c-1.1 0.46914-8.3 2.9406-16 5.4921s-14.9 5.033-16 5.5144c-1.1 0.48141-6.5 2.3019-12 4.0455s-13.825 4.4154-18.5 5.9373-11.875 3.7532-16 4.9585-9.075 2.7772-11 3.4932c-1.925 0.71597-5.3092 1.6028-7.5205 1.9707-2.2112 0.3679-4.6862 1.1135-5.5 1.6569-1.793 1.1973 0.90005 0.8 21.52-3.1747zm-296.57-5.19c-1.088-3.94-2.933-5.05-2.933-1.77 0 2.8337 2.2072 7.2398 3.153 6.2941 0.44398-0.44398 0.34503-2.4812-0.21988-4.5271zm115.07 2.78c0-1.375-0.45-2.5-1-2.5s-1 0.5051-1 1.1224c0 0.7676-0.48185 0.72255-1.5242-0.1425-0.83829-0.69572-1.802-0.98707-2.1417-0.64744-0.62996 0.62995 3.5535 4.5738 4.9158 4.6342 0.4125 0.0183 0.75-1.0917 0.75-2.4667zm19-4.5334c3.025-0.44883 9.325-1.7218 14-2.8289s15.7-3.1779 24.5-4.6018 21.4-3.521 28-4.6601c16.808-2.901 65.105-13.188 76.5-16.295 5.225-1.4243 13.55-3.6768 18.5-5.0055s12.15-3.3757 16-4.5488c3.85-1.1732 8.8-2.5976 11-3.1653 2.2-0.56775 4.9-1.3983 6-1.8457 1.1-0.44737 5.15-1.7866 9-2.9761s7.9-2.549 9-3.0211c1.1-0.47212 5.375-2.0864 9.5-3.5874 28.761-10.465 93.875-47.657 77-43.981-1.375 0.29953-6.325 1.207-11 2.0166-17.969 3.1118-21.516 3.8304-22 4.4572-2 2.59-35.1 20.07-38 20.07-0.56323 0-1.8054 0.3975-2.7605 0.88333-4.4092 2.243-7.8764 3.4611-30.236 10.623-2.475 0.79274-6.75 1.9109-9.5 2.4849-2.75 0.57394-5.9 1.4772-7 2.0073-1.1 0.53008-8.75 2.5094-17 4.3985s-17.67 4.1261-20.933 4.9711c-3.263 0.84503-8.0402 1.7711-10.616 2.0579-2.5757 0.28681-5.7635 0.93224-7.084 1.4343s-8.0184 2.1073-14.884 3.5673c-6.8658 1.4599-13.608 3.1318-14.983 3.7153-2.2176 0.94099-12.652 3.4076-41 9.6917-14.524 3.2198-28.052 5.4565-41 6.7789-10.661 1.0889-11.189 1.1234-19.25 1.2575l-7.76 0.13v8.9529 8.9529l5.25-0.56154c2.8875-0.30885 7.725-0.92876 10.75-1.3776zm-139-1.89c0-2.98-1.078-5.08-2.607-5.08-1.6464 0-1.7372 0.96-0.4178 4.43 1.1438 3.01 3.0248 3.41 3.0248 0.65zm120-1.4075c0-2.1278-2.5663-5.2787-5.7901-7.1093-2.0034-1.1376-0.36697 4.473 2.0956 7.185 2.6078 2.8719 3.6944 2.8496 3.6944-0.0757zm252.21-3.1046c9.5071-1.8867 21.561-4.1726 26.786-5.0799 5.225-0.90729 11.075-2.095 13-2.6394 4.3642-1.2341 8.0102-2.6619 17.239-6.7507 2.6065-1.1548 4.9557-2.0997 5.2204-2.0997 0.46606 0 6.1497-2.4983 17.541-7.7101 17.753-8.1229 49.267-24.415 55.982-28.942 1.9152-1.2911 4.0527-2.3475 4.75-2.3475 0.69733 0 1.2679-0.45 1.2679-1s0.5625-1.0338 1.25-1.075c2.953-0.17725 18.26-10.624 18.56-12.667 0.27901-1.8995-0.63204-1.6194-9.1601 2.8166-5.21 2.7-10.15 4.92-10.97 4.92-0.82632 0-6.3793 2.5414-12.34 5.6476-13.92 7.25-32.11 16.35-32.69 16.35-0.24766 0-4.2075 1.7252-8.7996 3.8337-6.761 3.1044-22.944 9.7749-34.349 14.158-5.5476 2.1321-11.211 4.3323-13 5.0502-1.1 0.44144-4.25 1.5602-7 2.4861-2.75 0.92589-5.9 2.0761-7 2.5559-1.1 0.47987-12.125 4.244-24.5 8.3646-25.595 8.5227-25.748 8.8764-1.7856 4.121zm-378.21-2.57c0-1.65-0.45-3-1-3-1.1123 0-1.3802 4.2865-0.33333 5.3333 1.1297 1.13 1.3333 0.78 1.3333-2.33zm47.307 0.0661c-0.81211-3.1055 1.4887-21.261 3.3097-26.117 3.0238-8.0631 2.1983-26.592-1.6598-37.255-3.4714-9.5936-4.9479-11.524-4.9742-6.5035-0.0095 1.82-0.1036 18-0.20911 35.955-0.15239 25.934 0.08194 32.975 1.1397 34.25 1.813 2.1845 3.0081 2.02 2.3937-0.32946zm78.693-3c0-1.0625-1.35-2.8932-3-4.0681-3.6066-2.5681-4.4018-0.16119-1.25 3.7834 2.1688 2.7142 4.25 2.8537 4.25 0.28473zm317.58 0.37263c2.7942-0.23362 6.4666-1.1163 8.1608-1.9615 5.1745-2.5814 16.513-3.0704 60.759-2.6201 9.9 0.10074 19.35 0.0191 21-0.18146s4.0125-0.43508 5.25-0.52117c1.7986-0.12511 2.25-0.75845 2.25-3.1565 0-3.6647-0.96441-3.7305-21-1.432-10.066 1.1548-18.078 1.3816-31.5 0.89178-16.646-0.60749-18.978-0.4686-31 1.8462-7.15 1.3767-17.275 3.277-22.5 4.2229-23.024 4.1681-19.747 5.2802 8.5804 2.9118zm-402.58-6.22c0-5.02-2.078-9.22-4.557-9.22-1.7266 0-2.0618 7.4997-0.38161 8.5381 0.58393 0.36089 1.4728 1.7374 1.9752 3.059 1.492 3.92 2.963 2.74 2.963-2.38zm-28.036 1.8446c1.1394-2.129 0.74777-2.3498-6.2698-3.5356-2.0932-0.3537-4.7257-1.563-5.85-2.6873-1.313-1.313-2.3893-1.6991-3.0089-1.0795-1.5173 1.5173 8.9207 8.947 12.88 9.1676 0.66815 0.0372 1.6803-0.8021 2.2492-1.8652zm7.036 0.56c0-0.76085-0.9-1.6187-2-1.9064-1.9374-0.50665-2.7886 1.1678-1.3333 2.6231 1.176 1.17 3.333 0.71 3.333-0.72zm103.91-8.2145c-2.4332-2.5901-4.9109-3.1722-4.9034-1.1521 0.0106 2.8678 6.463 8.4182 6.8278 5.8733 0.19903-1.3887-0.57295-3.2827-1.9243-4.7211zm26.59 4.14c5.9523-0.48679 13.011-1.3844 27.561-3.5048 7.8067-1.1377 26.695-5.3654 51.939-11.626 7.975-1.9777 21.25-5.1261 29.5-6.9964 8.25-1.8704 16.35-3.8975 18-4.5048 1.65-0.60727 4.8-1.5514 7-2.098 2.2-0.54661 4.9-1.3657 6-1.8203 1.1-0.45454 5.375-1.842 9.5-3.0832 9.5501-2.8737 33.873-10.789 36.5-11.879 1.1-0.45611 4.25-1.5868 7-2.5127 2.75-0.92589 5.9-2.0624 7-2.5256 1.1-0.46319 5.375-2.0393 9.5-3.5025s8.4-3.0284 9.5-3.4782c3.9248-1.605 9.0868-3.8451 14.78-6.4139 3.1788-1.4344 6.2913-2.6079 6.9167-2.6079 0.62537 0 0.90099-0.23605 0.61249-0.52455-0.2885-0.28849-4.076 0.15001-8.4167 0.97446-22.938 4.3568-29.492 5.5565-35.702 6.5347-3.7452 0.59004-7.5702 1.472-8.5 1.96-11.705 6.1435-52.083 20.287-82.69 28.965-14.899 4.2243-50.769 11.586-61 12.519-3.85 0.35113-9.025 0.81876-11.5 1.0392-2.475 0.22042-10.112 1.1053-16.97 1.9663-6.8586 0.86107-18.221 1.5656-25.25 1.5656-9.5104 0-12.802 0.31979-12.868 1.25-0.15744 2.2391-0.1814 7.2013-0.0452 9.3669 0.14181 2.2553 3.6471 2.4069 21.633 0.93597zm-16.791-3.1773c-1.4934-1.4934-0.68263-5.1491 1.2544-5.6556 2.3326-0.60998 4.3397 1.4612 3.8591 3.9821-0.34854 1.8282-3.822 2.965-5.1135 1.6736zm323 1.1712c21.857-4.4941 28.791-7.9328 66.876-33.166 16.441-10.893 17.065-11.428 16.646-14.284l-0.43545-2.9669-11.646 7.1364c-23.669 14.504-52.913 29.619-81.146 41.94-10.332 4.5094-10.601 4.6538-8.7948 4.7255 0.93783 0.0372 9.2628-1.4863 18.5-3.3856zm-441.71 1.66c0-1.54-2.421-3.2-4.673-3.2-2.517 0-11.327-3.98-11.327-5.12 0-0.39616 1.8048-0.0113 4.0108 0.85518 7.344 2.8848 5.9351-0.54335-1.7965-4.3714-3.4674-1.7167-4.9586-1.3784-3.6016 0.81727 0.44711 0.72344 0.82967 2.1646 0.85014 3.2025 0.050854 2.5789 4.0737 5.3846 10.052 7.011 6.403 1.75 6.485 1.76 6.485 0.81zm18.249-6.6842c-0.55636-4.936 0.56048-5.7309 4.1922-2.984 2.8636 2.1659 3.5589 1.825 3.5589-1.7447 0-2.9353-9.3254-13.792-11.841-13.785-2.0071 0.005-1.1256 19.405 0.98371 21.65 2.8942 3.0808 3.7137 2.2534 3.1062-3.1361zm482.54 2.978c7.5388-0.82844 16.182-1.6159 19.207-1.75 5.3903-0.2389 5.5-0.30361 5.5-3.2438 0-1.65-0.46877-2.9187-1.0417-2.8194-0.57294 0.0993-5.7479 0.41021-11.5 0.69088s-18.333 1.9994-27.958 3.8194l-17.5 3.3091 6.5 0.5774c11.19 0.99402 12.745 0.96016 26.793-0.58364zm-389.79-5c0-2.7642-3.1611-6.5-5.5-6.5-3.7746 0 0.75127 8.5001 4.75 8.921 0.4125 0.0434 0.75-1.046 0.75-2.421zm-99.687-7.5909c0.16406-4.625-0.0057-10.106-0.37723-12.181-0.8408-4.6943 0.28797-5.5615 2.6154-2.0093 2.491 3.8 10.009 11.28 11.339 11.28 2.4626 0 0.64146-8.6116-2.4816-11.735-13.516-13.51-16.169-31.72-10.091-69.26 4.8669-30.055 5.1737-49.146 1.0364-64.5-0.88922-3.3-1.654-6.7875-1.6995-7.75-0.04551-0.9625-0.60622-1.75-1.246-1.75-0.6398 0-1.7235-0.675-2.4082-1.5-1.4118-1.7011-4.4741-2.0762-3.4524-0.42292 0.36612 0.59239 1.2362 5.4428 1.9335 10.779 1.2834 9.8206 1.2618 11.184-0.51808 32.644-2.8735 34.647-3.1049 62.621-0.62457 75.5 1.8878 9.8029-0.0036 42-2.4673 42-1.1325 0-1.0897-2.0706 0.20661-10 1.7232-10.54 1.7989-19.836 0.25037-30.741-2.0884-14.707-2.013-64.724 0.10283-68.148 1.5226-2.4636 2.6518-32.845 1.5173-40.823-0.68734-4.8336-1.2944-9.9087-1.349-11.278-0.08335-2.0901-4.4865-7.4492-5.3859-6.5552-0.49921 0.49619-0.22348 96.648 0.37723 131.54l0.57666 33.5 5.6664 5.1533c6.7668 6.1541 6.1153 6.5305 6.4798-3.7442zm481.21 4.574c11.793-2.4843 23.586-4.7965 26.208-5.1382 7.2-0.93 7.27-1.06 7.27-14.45v-11.868l-3.8809 2.7405c-2.3179 1.6368-3.3248 2.8707-2.5 3.0638 0.78634 0.18412 1.3809 1.5835 1.3809 3.25 0 3.5981-4.54 4.3443-5.7948 0.95242-0.67623-1.828-1.2721-1.6058-8.0454 3-4.0233 2.7358-7.509 4.9743-7.7461 4.9743-0.23705 0-2.2946 1.35-4.5724 3s-4.7114 3-5.408 3c-0.69664 0-1.4166 0.38269-1.6 0.85042-0.30294 0.77289-8.1797 5.425-15.083 8.9085-2.5534 1.2884-3.4919 2.2411-2.2077 2.2411 0.29826 0 10.191-2.0326 21.984-4.5169zm32.73-3.14c-0.6875-0.27741-1.8125-0.27741-2.5 0s-0.125 0.50439 1.25 0.50439 1.9375-0.22698 1.25-0.50439zm-423.67-8.59c-0.23698-3.9875-0.99281-8.6-1.6796-10.25-1.7892-4.2984-2.3137-25.722-0.8079-33 1.2764-6.169 2.2375-35.478 1.248-38.057-1.5838-4.1274-4.196-1.45-3.714 3.8068 0.51942 5.6653-0.94108 14.469-5.0185 30.25-4.5891 17.762-3.5663 28.775 4.1562 44.75 5.6391 11.666 6.3795 11.984 5.8159 2.5zm9.42 5.93c0-1.47-4.46-5.68-6.01-5.68-1.7244 0-1.08 2.0033 1.4622 4.5454 2.7076 2.7076 4.5454 3.1664 4.5454 1.1349zm69-0.64695c17.654-2.3511 48.066-8.973 68.5-14.915 3.85-1.1196 9.25-2.6912 12-3.4925 6.5244-1.9011 20.45-6.5069 23-7.6073 1.1-0.47463 4.25-1.6205 7-2.5464 5.444-1.8329 7.2027-2.5025 12.5-4.7587 1.925-0.8199 4.5464-1.8069 5.8254-2.1933 6.0504-1.8279 0.0899-1.2035-14.387 1.5073-23.045 4.3152-35.115 6.5576-50.938 9.4635-7.7 1.4141-18.725 3.4569-24.5 4.5396-5.775 1.0826-24 4.4752-40.5 7.5391s-31.8 5.9608-34 6.4376c-2.2 0.47678-9.4 1.8352-16 3.0187-14.607 2.6193-14.802 2.6768-13.915 4.1112 0.85415 1.382 53.409 0.49549 65.415-1.1035zm-183.7-83.78c-0.386-59.22-0.86-83.15-1.668-84.16-1.836-2.3-2.174 17.12-1.629 93.51 0.493 69.15 0.698 73.4 3.54 73.4 0.16257 0 0.05291-37.238-0.24369-82.75zm121.31 78.921c-0.28173-0.45584 1.8292-2.086 4.691-3.6226 5.5182-2.963 13.434-8.2091 25.703-17.036 24.824-17.858 64.796-39.026 93.5-49.514 1.1-0.40194 3.125-1.2061 4.5-1.7869 1.375-0.58087 4.75-1.806 7.5-2.7224 2.75-0.91648 5.6898-2.0192 6.5328-2.4505 0.84306-0.43131 3.0783-1.1236 4.9672-1.5385 1.8889-0.41487 4.1241-1.1092 4.9672-1.5429 2.3507-1.2094 21.662-6.9786 38.033-11.362 16.079-4.3054 82.194-17.541 95.217-19.061 2.0444-0.23867 6.3194-0.86095 9.5-1.3828 3.1806-0.52189 9.608-1.4666 14.283-2.0993 8.5591-1.1584 28.358-3.873 33-4.5245 9.8313-1.3798 20.829-2.581 28.5-3.1128 4.95-0.34316 10.8-0.75985 13-0.92599 2.2-0.16613 8.3875-0.34402 13.75-0.3953l9.75-0.09v-3.1241-3.1242l-10.75 0.63667c-5.9125 0.35017-14.35 1.0742-18.75 1.609-18.789 2.2837-31.42 3.9562-37.5 4.9653-3.575 0.59333-10.775 1.7684-16 2.6112-60.68 9.7885-138.15 26.574-199 43.117-8.2603 2.2457-19.689 6.5035-25.236 9.402-0.95504 0.49899-2.4175 0.90726-3.25 0.90726-0.83246 0-1.5136 0.45-1.5136 1s-0.87344 1-1.941 1c-1.0675 0-2.1977 0.41538-2.5115 0.92306-0.31377 0.50769-1.9153 1.2184-3.559 1.5795-1.65 0.36-2.99 1.07-2.99 1.58s-0.84 0.92-1.86 0.92c-1.0232 0-3.5182 1.125-5.5444 2.5s-4.0765 2.5-4.5562 2.5c-0.47974 0-1.0222 0.36036-1.2056 0.8008-0.18333 0.44044-3.9333 3.0179-8.3333 5.7277s-8.15 5.2744-8.3333 5.6992c-0.18334 0.42476-0.71402 0.77229-1.1793 0.77229-0.46527 0-3.6903 1.9095-7.1667 4.2434-7.0814 4.754-9.6299 6.3483-11.821 7.3944-0.825 0.39395-1.725 1.0016-2 1.3503-1.78 2.25-33.15 19.01-35.59 19.01-1.03 0-1.41 1.36-1.41 5 0 4.6974 0.15486 5 2.559 5 1.4075 0 2.3285-0.37296 2.0468-0.8288zm4.6442-0.83348c-0.6875-0.27741-1.8125-0.27741-2.5 0s-0.125 0.50439 1.25 0.50439 1.9375-0.22698 1.25-0.50439zm18.25-2.9126c15.989-2.9154 19.294-3.5042 36.5-6.5021 16.817-2.9302 56.544-10.163 98.5-17.932 5.5-1.0185 15.4-2.8059 22-3.972s15.15-2.7504 19-3.5208c3.85-0.77036 10.6-2.0685 15-2.8848 4.4-0.81629 19.925-3.7811 34.5-6.5885s33.7-6.4541 42.5-8.1037 19.6-3.6944 24-4.5439c4.4-0.84954 12.639-2.3818 18.309-3.4049 45.937-8.2894 89.551-17.997 69.941-15.568-2.3375 0.28957-12.795 0.79846-23.239 1.1309-10.444 0.33242-21.244 0.77233-24 0.97759-2.7561 0.20526-9.7361 0.64703-15.511 0.98171-20.545 1.1907-25.721 1.6219-44 3.6663-10.175 1.138-19.761 2.1992-21.303 2.3584-13.584 1.4024-47.129 8.7015-61.697 13.425-1.925 0.62411-5.75 1.8303-8.5 2.6805-2.75 0.85015-5.9 1.9255-7 2.3897-1.1 0.46417-4.7 1.81-8 2.9908-7.6064 2.7217-10.298 3.9044-25 10.985-11.211 5.3991-18.5 7.9828-18.5 6.5576 0-0.53981 28.316-14.539 33.5-16.563 1.1-0.42931 3.575-1.4583 5.5-2.2867 3.3115-1.4251 16.624-5.9412 31-10.517 7.4055-2.357 42.23-9.8605 52-11.204 14.25-1.9599 52.132-5.8756 62.5-6.4604 18.981-1.0706 22.034-1.4369 25.22-3.0263 3.9845-1.9877 16.804-3.0045 36.03-2.8576 13.968 0.10671 15.25-0.0323 15.25-1.654 0-3.8868-39.888-3.7854-74 0.18808-5.225 0.60862-10.625 1.2082-12 1.3325-4.1235 0.37263-18.203 2.3773-36 5.1256-27.779 4.2899-77.02 13.945-91.5 17.941-15.824 4.3671-28.959 8.408-34 10.46-1.1 0.44772-5.375 2.0383-9.5 3.5346s-11.714 4.6824-16.864 7.0802c-5.1499 2.3978-9.7369 4.3596-10.193 4.3596-0.45638 0-1.4393 0.87017-2.1842 1.9337-3.503 5.0013-25.031 15.128-27.311 12.847-0.65767-0.65767 20.431-13.058 30.552-17.966 15.343-7.4391 22.085-10.175 39.5-16.029 20.565-6.9134 50.206-14.414 70.5-17.84 6.875-1.1606 15.425-2.7178 19-3.4604 15.762-3.274 34.827-6.2708 63.5-9.9816 34.075-4.41 59.747-5.7212 80.75-4.1245l9.75 0.74123v-4.0603c0-4.609-1.1411-5.2408-2.818-1.5603-1.5544 3.4116-5.0038 2.5346-6.3902-1.6248-0.4607-1.3821-48.335-1.9521-64.292-0.76546-17.421 1.2955-19.457 1.5122-37.5 3.9896-23.967 3.2909-59.625 10.388-86 17.115-10.725 2.7358-22.2 5.6299-25.5 6.4313-5.8786 1.4275-11.44 3.1189-26.5 8.0587-8.1443 2.6715-9.1577 3.0581-16.239 6.1955-2.62 1.15-5 2.09-5.31 2.09-0.76 0-23.83 11.28-24.46 11.96-0.275 0.29486-2.075 1.3925-4 2.4392s-5.4351 3.1842-7.8001 4.75c-2.37 1.57-4.52 2.85-4.79 2.85-0.27064 0-1.0356 0.47005-1.6999 1.0446-4.44 3.84-19.17 13.96-20.31 13.96-2.5191 0-1.4288-1.4397 4.1652-5.5 3.031-2.2 6.0569-4.4562 6.7243-5.0137 1.95-1.64 16.73-11.49 17.22-11.49 0.24794 0 2.822-1.5096 5.7202-3.3547 10.636-6.7714 36.195-18.111 53.269-23.633 36.155-11.693 104.3-26.596 144.5-31.599 6.875-0.85573 14.075-1.7908 16-2.0779 1.925-0.28711 21.936-0.72833 44.468-0.98049 39.433-0.44127 42.625-0.59472 41.238-1.9821-0.80957-0.80958-45.154-0.79453-58.206 0.0197-24.95 1.5566-43.986 3.2134-53.5 4.6564-3.575 0.54221-11 1.6297-16.5 2.4167-21.14 3.025-29.607 4.485-46.025 7.9371-35.035 7.3664-60.283 13.582-88.975 21.903-19.393 5.6245-52.86 22.149-65.202 32.194-0.67575 0.55-1.8155 1.45-2.5328 2-1.9074 1.4626-13.806 11.839-17.058 14.875-1.5359 1.4342-4.0109 2.8726-5.5 3.1964-2.4884 0.54099-2.3433 0.25067 1.7925-3.5871 2.475-2.2967 6.3-5.8502 8.5-7.8968 18.826-17.513 54.552-36.786 82-44.235 3.85-1.0449 11.275-3.0662 16.5-4.4918s14.675-3.8646 21-5.4199c6.325-1.5554 14.919-3.7031 19.099-4.7727 13.888-3.5544 55.727-11.481 74.401-14.096 3.85-0.53908 10.15-1.4435 14-2.0098 24.778-3.6449 56.088-5.5625 90.824-5.5625h25.824l-0.32353-8.8377-0.32352-8.8377-10.5 0.63366c-15.388 0.92867-21.954 1.421-27 2.0245-2.475 0.29604-7.875 0.76049-12 1.0321-10.247 0.67477-36.171 3.3252-43.5 4.4474-3.3 0.50531-9.6 1.4239-14 2.0413-16.449 2.3081-29.083 4.4557-68.431 11.633-4.6368 0.84576-11.837 2.4358-16 3.5335-4.1632 1.0976-12.744 3.278-19.069 4.8453-13.007 3.2229-24.772 6.366-27 7.2133-0.825 0.31371-6.9 2.2561-13.5 4.3164s-13.35 4.3038-15 4.9855-4.8 1.8331-7 2.5587c-2.2 0.72558-4.4275 1.6774-4.95 2.1151-0.5225 0.43772-1.5288 0.79586-2.2363 0.79586-4.1809 0-61.041 26.762-62.147 29.25-0.18334 0.4125-0.72988 0.75-1.2145 0.75-0.92702 0-16.091 8.9394-16.952 9.9935-0.275 0.33666-2.3 1.6991-4.5 3.0276s-4.45 2.7739-5 3.212c-6.2936 5.0132-22.491 16.189-27.5 18.973l-3.5 1.9458 4.5-0.63395c2.475-0.34868 8.1-1.2904 12.5-2.0927zm218.69-42.95c1.4-1.4 46.29-12.15 56.81-13.6 17.262-2.3878 29.551-3.5557 30.31-2.8805 0.8904 0.79294-0.5924 1.0906-20.271 4.0693-7.4038 1.1207-19.779 3.4022-27.5 5.0699-30.686 6.628-40.46 8.4513-39.349 7.3401zm-248.19 43.69c0-0.45909-1.3315-2.0211-2.9589-3.4711-3.6116-3.2179-5.2728-1.6341-1.9716 1.8798 2.2318 2.3756 4.9304 3.2466 4.9304 1.5913zm-85-13.72c0-5.357-0.52097-9.558-1.3951-11.25-6.951-13.45-8.075-34.54-3.102-58.2 0.75126-3.575 1.6804-10.325 2.0648-15 0.38437-4.675 0.84511-9.85 1.0239-11.5 1.9753-18.233 0.38726-27.108-5.6833-31.765-5.0096-3.8431-5.6244-3.7493-3.9686 0.60587 3.5868 9.4341 4.0475 34.414 1.0198 55.304-4.5453 31.361-5.1597 37.825-4.5959 48.355 0.63917 11.938 1.7 16.438 4.8971 20.771 10.253 13.9 9.739 13.76 9.739 2.68zm85 7.6264c0-1.29-4.98-7.08-6.09-7.08-1.6287 0-0.96373 2.6224 1.3389 5.2802 2.2476 2.5943 4.75 3.5407 4.75 1.7965zm13.241-9.8985c5.0924-2.652 11.059-5.9474 13.259-7.3231s4.675-2.8098 5.5-3.1868c0.825-0.37705 2.85-1.5119 4.5-2.5218 27.96-17.12 34.61-21.15 34.89-21.15 0.17931 0 4.1031-2.158 8.7195-4.7954 15.852-9.0566 28.565-14.659 41.394-18.241 2.2-0.6143 7.15-2.0138 11-3.11 13.657-3.8884 29.22-7.8795 46-11.796 9.35-2.1825 20.6-4.8847 25-6.0048 25.83-6.5759 134.49-27.359 149.63-28.618 1.4479-0.12046 4.5979-0.56143 7-0.97993s5.4925-0.86876 6.8675-1.0006c1.375-0.13181 6.55-0.72773 11.5-1.3243 4.95-0.59653 12.353-1.349 16.451-1.6721 7.829-0.61735 9.0494-0.96124 9.0494-2.5499 0-0.59944-3.3662-0.76548-8.75-0.43159-4.8125 0.29846-12.8 0.78373-17.75 1.0784-4.95 0.29465-15.075 1.2445-22.5 2.1108-7.425 0.86632-14.85 1.6765-16.5 1.8004-1.65 0.12388-4.8 0.51004-7 0.85813s-7.6 0.92724-12 1.287c-11.127 0.90981-12.222 1.0374-19 2.2143-3.3 0.573-10.725 1.7789-16.5 2.6798-26.498 4.1337-87.594 16.745-101.5 20.951-2.75 0.83178-7.025 1.9906-9.5 2.5751-2.475 0.58454-5.625 1.457-7 1.9387-1.375 0.48175-7.9 2.5311-14.5 4.554-13.62 4.1747-29.029 9.2171-32 10.472-1.1 0.46448-5.375 2.0377-9.5 3.496-7.1226 2.5181-17.555 6.4824-23 8.7399-1.375 0.57011-3.4 1.3803-4.5 1.8005-4.1864 1.599-23.154 9.2376-26.5 10.672-1.925 0.82525-4.4 1.8476-5.5 2.2718-1.1 0.42424-4.25 1.7854-7 3.0247-2.75 1.2394-5.9 2.5894-7 3-1.1 0.41065-4.025 1.6524-6.5 2.7594s-8.775 3.6766-14 5.7102c-15.471 6.0213-14.006 4.3684-13.914 15.698 0.0927 11.477-0.63427 11.151 11.155 5.011zm-5.1358-7.5515c-1.67-2.02-0.25-4.63 2.51-4.63 2.6331 0 3.302 2.691 1.193 4.8-1.5477 1.5477-2.2956 1.5126-3.6948-0.17325zm-18.12-1.38c-0.01-8.6-0.33-12.26-0.98-11.25-1.5552 2.4065-0.98759 24 0.63084 24 0.20304 0 0.36227-5.7375 0.35385-12.75zm9.0103 9.7406c-0.55575-1.0384-2.0171-2.5931-3.2475-3.4549-3.3482-2.3452-3.4896 0.0803-0.20456 3.5091 2.9609 3.0905 5.117 3.0567 3.4521-0.0542zm220.01-2.2c10.29-3.2512 16.504-5.4763 19.236-6.8883 0.95504-0.49354 2.1974-0.89734 2.7609-0.89734 1.0849 0 7.9406-2.9107 14.347-6.0914 2.1145-1.0498 4.4395-1.9086 5.1667-1.9086 0.72719 0 1.4722-0.3375 1.6555-0.75 0.18333-0.4125 3.41-2.325 7.1705-4.25 6.6948-3.4271 10.46-6.1973 4.9523-3.6431-1.5342 0.71142-6.3894 2.9732-10.789 5.0262-8.3117 3.8782-11.277 5.1953-15.5 6.8845-5.0821 2.0329-6.6599 2.6267-14 5.2691-10.465 3.7672-11.033 3.9841-15.284 5.8247-2.0812 0.90124-4.5937 1.6386-5.5833 1.6386-0.98967 0-2.1362 0.3375-2.5479 0.75-0.41168 0.4125-2.3992 1.2948-4.4167 1.9607l-3.6682 1.2107 3.5-0.56713c1.925-0.31193 7.775-1.9178 13-3.5687zm-219-2.71c0-1.29-4.98-7.08-6.09-7.08-1.8376 0-0.8368 2.988 1.8287 5.4595 2.8591 2.6511 4.2602 3.183 4.2602 1.6172zm-1-8.6664c0-2.3232-3.2649-6.289-5.25-6.377-1.5345-0.0681-0.64931 3.5569 1.5134 6.1974 2.806 3.4258 3.7366 3.4706 3.7366 0.17961zm-83.831-33.66c0.18422-18.288 0.04254-34.6-0.31484-36.25l-0.64979-3-0.10236 3.1505c-0.0563 1.7328-1.046 9.3828-2.1993 17-3.504 23.15-2.298 52.35 2.163 52.35 0.42283 0 0.91951-14.962 1.1037-33.25zm83.831 26.56c0-1.75-3.74-6.31-5.17-6.31-1.4886 0-0.86599 2.6791 1.2469 5.3651 2.3748 3.019 3.9274 3.3943 3.9274 0.94931zm5.7636 0.78535c0.95504-0.49511 4.8864-2.1139 8.7364-3.5972 8.8365-3.4046 10.105-3.9135 15-6.0192 2.2-0.94633 5.575-2.3956 7.5-3.2206l7-3 7-3c1.925-0.825 4.85-2.0759 6.5-2.7799 3.0217-1.2891 22.282-9.0313 26-10.451 1.1-0.42015 3.125-1.2202 4.5-1.778 22.509-9.1303 58.203-21.133 84-28.247 6.325-1.7442 13.525-3.7991 16-4.5666 4.6654-1.4467 60.938-13.513 71.5-15.332 19.822-3.4128 29.914-5.0725 37-6.0845 4.4-0.62841 10.7-1.5586 14-2.0672 3.3-0.50855 9.15-1.1282 13-1.3769 3.85-0.24876 9.7-1.1489 13-2.0002 11.188-2.8864 40.443-6.306 61.75-7.2179l15.75-0.67409v-2.8627c0-2.4428-0.32999-2.793-2.25-2.3875-1.2375 0.26135-6.075 0.77263-10.75 1.1362-4.675 0.36354-9.625 0.78052-11 0.92662s-5.875 0.57443-10 0.95183c-16.208 1.4829-53.209 5.7423-66 7.5976-32.2 4.6706-90.564 15.536-102 18.99-1.925 0.58129-10.025 2.5789-18 4.4391s-20.575 5.0326-28 7.0498c-12.65 2.7458-28.445 7.8605-37.193 9.5037-4.1494 1.4277-3.1362 0.65995-4.1494 1.4277-1.0132 0.76773-3.6674 1.7042-5.8982 2.0811-2.2308 0.37689-5.5498 1.3094-7.3756 2.0723-1.8258 0.76289-4.3467 1.3898-5.6018 1.3932-1.2552 0.003-3.5172 0.65046-5.0268 1.4379-1.5096 0.78747-4.7721 1.7358-7.25 2.1074-2.47 0.37-4.5 1.02-4.5 1.45 0 0.4251-2.0145 1.075-4.4767 1.4442-2.4622 0.36923-4.7387 1.0953-5.059 1.6136-0.32 0.52-1.49 0.94-2.61 0.94-1.1202 0-3.2311 0.66919-4.691 1.4871-3.5383 1.9823-16.833 6.572-20.904 7.217-1.7875 0.28313-3.25 0.91554-3.25 1.4054 0 0.48982-1.039 0.89059-2.3089 0.89059s-3.1824 0.66069-4.25 1.4682c-1.0676 0.8075-2.6595 1.4825-3.5375 1.5s-3.0436 0.75375-4.8123 1.6361c-1.7688 0.88238-3.4665 1.3538-3.7727 1.0476-0.30619-0.3062-1.2103 0.0968-2.0091 0.89566-0.8 0.8-2.77 1.45-4.38 1.45s-2.93 0.34-2.93 0.77c0 0.88-9 4.23-11.38 4.23-0.89 0-1.62 0.45-1.62 1s-0.9 1-2 1c-1.8222 0-2 0.66667-2 7.5 0 7.9214 0.0382 8.0127 2.7636 6.5998zm-5.9-11.85c0.004-5.5192-2.3203-10.25-5.0352-10.25-1.5959 0-0.80376 3.7099 1.1743 5.5 1.1 0.99549 2 2.2206 2 2.7224 0 0.50182-0.9 0.62675-2 0.27762-2.8184-0.89452-2.5885 1.573 0.45225 4.854 3.3091 3.5706 3.4043 3.4838 3.4087-3.104zm-47.036-15.34c-0.3-10.72-0.529-11.89-3.047-15.51-4.396-6.34-6.493-14.01-7.281-26.63l-0.72143-11.546-4.497-3.1698c-5.3053-3.7395-5.4491-3.6894-4.2241 1.4719 0.5185 2.1846 1.1793 9.7731 1.4684 16.863 0.92443 22.67 3.3975 32.598 11.353 45.576 1.5282 2.493 3.6442 6.518 4.7021 8.9444l1.923 4.42 0.324-4.41c0.17813-2.4264 0.17813-9.6271 0-16.002zm54.94 7.1395c0.95504-0.52277 8.2614-3.069 16.236-5.6583 7.975-2.5893 15.918-5.3116 17.651-6.0495 1.7331-0.73793 3.8767-1.3417 4.7636-1.3417 0.88684 0 2.3938-0.43966 3.3489-0.97701 1.9906-1.12 10.371-3.4615 11.471-3.2048 0.40391 0.0943 2.2039-0.72452 4-1.8196s4.0017-1.9927 4.9013-1.9948c0.89963-0.002 2.9246-0.67597 4.5-1.4976 1.5754-0.82161 3.6004-1.4966 4.5-1.5 0.89963-0.003 2.9246-0.67839 4.5-1.5s3.8502-1.4966 5.0553-1.5c1.205-0.003 2.4449-0.417 2.7552-0.91915 0.31034-0.50214 2.3595-1.2163 4.5538-1.587 2.1942-0.37071 4.2274-1.0589 4.5181-1.5292 0.2907-0.47037 2.5486-1.1581 5.0175-1.5284 2.4689-0.37024 4.7163-1.041 4.9941-1.4905 0.27783-0.44953 3.0848-1.3464 6.2377-1.993 3.1529-0.64661 6.1826-1.5281 6.7326-1.9589 0.55-0.43078 3.7-1.3128 7-1.9601 3.3-0.64727 7.4241-1.8239 9.1646-2.6148 1.7406-0.79086 6.0156-1.6918 9.5-2.0022 3.4844-0.31032 8.1354-1.191 10.335-1.9571 2.2-0.76606 7.825-2.2764 12.5-3.3562 4.675-1.0799 13.9-3.3044 20.5-4.9434 12.728-3.1608 43.295-9.9796 50-11.154 2.2-0.38525 10.975-2.0825 19.5-3.7717s20.225-3.8155 26-4.7252 14.325-2.2969 19-3.0828c4.675-0.78582 12.55-1.8846 17.5-2.4417 41.179-4.6346 53.991-6.0176 60.441-6.5244 4.0925-0.32158 7.6979-0.74355 8.012-0.9377 0.31414-0.19415 5.0532-0.64258 10.531-0.99653 11.704-0.75623 11.151 0.153 10.592-17.414l-0.07-2.38-18.25 0.62658c-10.038 0.34462-19.6 0.81434-21.25 1.0438-1.65 0.22948-5.25 0.66728-8 0.97288-8.4642 0.94059-20.845 2.4961-24 3.0152-1.65 0.27153-6.6 0.99402-11 1.6056-12.74 1.7706-36.546 6.0777-42 7.5988-9.4153 2.6258-34.879 7.4143-36.571 6.8773-0.92981-0.29511-5.0066 0.36607-9.0596 1.4693s-14.696 3.6014-23.651 5.5515-20.205 4.6149-25 5.9218c-8.1748 2.228-12.05 3.2017-36.218 9.1004-5.225 1.2753-15.8 3.9867-23.5 6.0255s-18.275 4.7748-23.5 6.0802c-19.666 4.9133-29.769 7.4961-38.5 9.8429-4.95 1.3305-12.6 3.147-17 4.0368-4.4 0.88979-9.0725 2.0577-10.383 2.5954-1.3109 0.53766-10.536 2.7537-20.5 4.9245-9.9641 2.1708-19.129 4.1867-20.367 4.4797-2.1957 0.51993-2.25 0.85802-2.25 14.014 0 14.277 0.27106 14.99 4.7636 12.53zm2.49-7.77c-0.69-0.24-1.25-1.5-1.25-2.78 0-2.6847 1.7232-3.6293 4.25-2.3297 3.3345 1.715 0.58635 6.3972-3 5.1112zm-12.342 0.1206c-2.66-2.82-3.91-3.05-3.91-0.7 0 3.0455 5.4238 7.9605 5.8324 5.2852 0.1908-1.2493-0.62887-3.1994-1.9243-4.5784zm-38.346-2.4492c6.4727-18.308 7.6833-31.681 3.0904-34.139-1.1614-0.62157-2.7156-1.734-3.4537-2.4722-2.91-2.91-3.201-0.92-3.201 21.83 0 12.742 0.20869 22.958 0.46376 22.703 0.25507-0.25506 1.6495-3.8176 3.0987-7.9167zm38.832-5.6536c-4.6151-3.3747-6.0782 0.34011-1.6447 4.1758l2.75 2.3791 0.33579-2.6278c0.21234-1.6618-0.31744-3.1054-1.4411-3.9271zm1.6-4.44c0-2.1987-2.5315-4.772-4.75-4.8284-2.1932-0.0558-1.3947 4.4223 1 5.6083 3.337 1.6527 3.75 1.5668 3.75-0.77985zm-47-17.276v-14.416l-4.0461-3.2046c-7.645-6.05-5.641 20.89 2.289 30.79 1.697 2.12 1.757 1.67 1.757-13.17zm45.75 7.8608c0.94109-0.28766 1.25-4.9462 1.25-18.851v-18.469l-3.75 0.57589c-6.3452 0.97444-6.3046 0.84441-6.1561 19.688 0.16112 20.453-0.19094 19.76 8.6561 17.055zm12.149-0.62313c1.3194-0.48698 10.544-2.6903 20.5-4.8962 9.9556-2.2059 20.351-4.6726 23.101-5.4816 2.75-0.80894 10.625-2.8592 17.5-4.5562 28.813-7.1119 34.449-8.5403 80.5-20.404 55.93-14.4 149.61-35.48 157.72-35.48 1.2625 0 8.5064-1.3645 16.097-3.0323 7.5911-1.6678 17.262-3.4975 21.491-4.0661 4.2288-0.56859 10.839-1.4897 14.689-2.0469s8.8-1.1935 11-1.4139c2.2-0.22046 6.025-0.61658 8.5-0.88028s10.688-0.79268 18.25-1.1755l13.75-0.69609v-3.1713c0-2.9869-0.18891-3.1498-3.25-2.8019-8.6122 0.97875-68.028 11.495-106.25 18.805-12.65 2.4194-25.925 4.9007-29.5 5.5139-10.196 1.749-141.9 29.828-147.6 31.468-2.8065 0.80744-16.532 3.9652-30.5 7.0172s-30.797 6.9027-37.397 8.557-21.9 5.1375-34 7.7404l-22 4.7326-0.30915 4.2592c-0.33634 4.6337 0.21671 4.7782 7.708 2.0131zm-22.914-3.1307c-0.03-4.02-3.85-6.69-9.56-6.69-1.33 0-2.43-0.57-2.43-1.26 0-1.5021-5.3252-4.0325-7.5143-3.5706-1.5332 0.32353 5.1434 6.0656 13.959 12.005 4.3602 2.9377 5.5629 2.8318 5.5397-0.48792zm-0.73-11.34c-0.22085-0.63344-1.9983-1.4513-3.95-1.8174-7.3606-1.3809-17.839-7.2679-28.133-15.805-5.3557-4.442-7.6283-5.7234-9.8497-5.5542-3.4 0.26-5.327-0.73-5.327-2.73 0-1.4488-5.0092-2.0984-6.2917-0.81592-0.34378 0.34378 2.8437 3.265 7.0833 6.4915 4.2396 3.2266 11.194 8.5703 15.455 11.875 5.8053 4.5027 8.5619 6.0121 11 6.023 4.1092 0.0184 10.729 2.3042 15.537 5.3646l3.7166 2.366 0.58227-2.1226c0.32025-1.1674 0.40158-2.6408 0.18073-3.2742zm45.237-0.83932c13.75-3.0148 32.425-7.2889 41.5-9.498s25.95-6.0484 37.5-8.5319c11.55-2.4834 27.3-6.0576 35-7.9426 15.273-3.739 96.232-20.948 103.5-22 2.475-0.35841 17.55-3.2776 33.5-6.4872 34.743-6.9912 66.094-12.702 122.42-22.299 4.4836-0.76393 7.6002-1.8078 7.877-2.6383 0.56889-1.7067-1.2517-1.5073-40.296 4.4138-31.065 4.711-38.25 5.7712-91.5 13.503-18.975 2.7552-39.9 5.8762-46.5 6.9357-6.6 1.0594-20.775 3.0967-31.5 4.5272-25.841 3.4468-52.176 7.1444-64.5 9.0565-5.5 0.85333-11.125 1.6945-12.5 1.8693s-3.175 0.60182-4 0.94894c-2.57 1.08-71.85 15.63-74.44 15.63-1.3464 0-9.5615 1.5323-18.256 3.4051-8.6942 1.8728-18.395 3.9297-21.558 4.5709l-5.75 1.1658v10.046c0 9.9353 0.0247 10.039 2.25 9.4243 1.2375-0.34178 13.5-3.0881 27.25-6.1029zm-23.439-6.4713c-1.9527-1.2068-0.80039-4.5006 1.6993-4.8572 1.7999-0.25679 2.2398 0.16412 2.2398 2.143 0 2.6541-1.9085 3.9692-3.9391 2.7142zm-92.457 2.2332c-0.33229-0.33229-0.56864 0.25834-0.52522 1.3125 0.04798 1.165 0.28494 1.4019 0.60417 0.60417 0.28887-0.72188 0.25334-1.5844-0.07895-1.9167zm70.397-2.1v-3.8304l-10.369-3.1596c-5.7031-1.7378-10.933-3.8391-11.622-4.6696-0.68926-0.8305-1.7606-1.5121-2.3807-1.5146-0.62016-0.003-2.5656-1.3525-4.3233-3-1.757-1.65-3.895-3-4.75-3s-1.554-0.48-1.554-1.06-0.496-0.75-1.103-0.38c-1.216 0.75-10.897-3.42-10.897-4.7 0-0.94806 2.2955-0.16445 6.75 2.3042 3.2485 1.8003 4.3137 1.2991 2.05-0.96468-2.4456-2.4456 1.2418-1.2422 3.9834 1.3 1.4829 1.375 3.1848 2.5 3.782 2.5 0.59725 0 2.1768 1.1842 3.5102 2.6315 2.8091 3.0491 12.834 8.0822 17.924 8.999 1.925 0.34668 3.95 0.9518 4.5 1.3447 3.4577 2.4701 4.3333 1.9381 4.3333-2.6329 0-3.9575-0.36837-4.7405-2.9103-6.1866-1.6007-0.91061-2.9132-1.9932-2.9167-2.4057-0.003-0.4125-0.41464-0.75-0.9137-0.75-0.83 0-36.942-23.67-38.09-24.96-0.275-0.32-4.325-3-9-5.97-8.228-5.23-12.443-8.05-19.205-12.865-2.709-1.928-4.03-2.201-8.26-1.703-4.573 0.538-11.406-0.671-16.785-2.968-1.308-0.559-1.75-0.277-1.75 1.115 0 2.5693 5.5172 4.7806 21 8.4169 8.3442 1.9597 15.494 4.785 23.972 9.4731 1.3596 0.75179 7.0614 5.8875 12.671 11.413 10.482 10.324 19.098 15.984 29.857 19.611 2.75 0.92717 6.125 2.6002 7.5 3.7177 2.7746 2.2552 2.9689 2.3112-9.2287-2.6605-15.468-6.31-14.717-5.78-33.56-23.46-8.788-8.25-18.212-13.2-30.71-16.12-9.6-2.241-25.78-7.922-26.333-9.244-0.184-0.438-0.971-0.796-1.75-0.796s-1.417-0.398-1.417-0.883c0-0.486-0.9-1.119-2-1.407-1.1-0.287-2-1.025-2-1.639 0-0.73267 0.77373-0.62873 2.25 0.30226 4.8979 3.0888 7.0948 3.1372 6.3426 0.13991-0.37388-1.4897-0.32266-2.5282 0.11383-2.3079 8.0821 4.0797 20.523 6.9654 22.313 5.1754 1.265-1.265-14.3-11.381-17.509-11.381-1.363 0-5.265-1.35-8.671-3-8.1841-3.964-7.839-4.203-7.839 5.422v8.4222l4.75 4.0982c2.6125 2.254 5.875 4.3317 7.25 4.617 6.1734 1.2813 14.756 3.7009 17.5 4.9337 1.65 0.74124 4.0125 1.6388 5.25 1.9946 5.5349 1.5914 1.5728 6.0385-4.3842 4.921-2.127-0.4-3.366-0.24-3.366 0.44 0 2.075 3.605 2.8813 15.85 3.5448 14.239 0.7716 28.18 6.5083 25.673 10.565-0.37222 0.60227-1.7323-0.009-3.3263-1.495-5.3753-5.011-10.637-6.7284-21.98-7.1741l-10.55-0.41452 4.2614 3.5603c4.271 3.57 15.072 5.4 15.072 2.56 0-1.7462 4.1666-1.0759 4.6619 0.75 0.26109 0.9625 2.8065 2.8121 5.6564 4.1103s4.6441 2.5649 3.9871 2.8148c-0.65701 0.25-2.2013-0.0842-3.4317-0.74276-5.8003-3.1042-20.085-5.1614-16.374-2.3581 5.4181 4.0927 7.9889 6.1166 10.383 8.1744 2.91 2.5009 3.7102 2.7178 4.6166 1.2512 0.89059-1.441 5.7191-1.23 8.0275 0.3508 1.0849 0.74295 3.1386 1.6336 4.5637 1.9792 1.4252 0.34562 5.568 2.9265 9.2063 5.7352 3.6383 2.8088 7.065 4.8288 7.6149 4.4889 0.54985-0.33983 1.7411 0.51354 2.6471 1.8964 2.0614 3.1461 6.735 6.0677 13.616 8.5121 7.53 2.67 7.83 2.61 7.83-1.79zm-43.5-28.7c-2.0007-1.6399-2.4751-2.4607-1.4243-2.464 0.86663-0.003 2.6326 1.12 3.9243 2.495 3.0033 3.1968 1.4138 3.1772-2.5-0.031zm-65.75-46.228c-1.5125-0.938-2.75-2.051-2.75-2.474 0-1.473 1.6677-0.751 4 1.732 2.7477 2.9248 2.5041 3.0693-1.25 0.74177zm131.75 62.318c1.65-0.32537 4.8968-0.77697 7.2151-1.0036 8.317-0.81292 20.176-2.8793 44.285-7.7163 31.307-6.2812 33.721-7.171 9-3.317-16.345 2.5482-36.099 5.3161-46.5 6.5154-17.06 1.9672-20.5 2.8233-20.5 5.102 0 1.4224 0.50316 1.8548 1.75 1.5038 0.9625-0.271 3.1-0.75894 4.75-1.0843zm-22.5-8.76c0-2.5064-0.36-3.8169-0.89274-3.25-0.82171 0.87441-0.37488 7.45 0.50624 7.45 0.21257 0 0.3865-1.89 0.3865-4.2zm16.5 2.6253c4.95-0.79363 14.625-2.1024 21.5-2.9085 6.875-0.80602 23.3-3.0841 36.5-5.0624s27.375-3.9841 31.5-4.4574c4.125-0.47326 11.55-1.5598 16.5-2.4146 4.95-0.85473 13.275-2.0257 18.5-2.602 9.5221-1.0504 53.238-7.1289 64.5-8.9684 3.3-0.53901 12.525-1.88 20.5-2.9801 14.935-2.0601 17.115-2.3836 74.5-11.059 18.7-2.8271 42.55-6.4221 53-7.9889 86.657-12.992 81.498-12.112 82.559-14.093 1.6191-3.0254 0.0914-4.9998-3.4247-4.4261-1.73 0.276-13.72 2.094-26.64 4.036-12.925 1.9418-29.125 4.412-36 5.4894s-15.875 2.3996-20 2.9383c-15.81 2.0644-37.071 5.0187-51 7.0869-7.975 1.1841-20.291 3.003-27.368 4.0419-7.0776 1.039-13.378 2.2721-14 2.7402-0.62237 0.46813-3.8316 0.9332-7.1316 1.0335-3.3 0.10028-15.45 1.497-27 3.1039s-28.425 3.8665-37.5 5.0214-21.45 2.7994-27.5 3.6544c-6.05 0.85504-16.175 2.209-22.5 3.0088-6.325 0.79982-17.125 2.3587-24 3.4642s-15.65 2.4213-19.5 2.9241c-3.85 0.50277-13.075 1.814-20.5 2.9138s-22.275 3.1533-33 4.5632-22.839 3.0101-26.921 3.556c-8.52 1.15-10.08 2.08-10.08 6.08 0 3.4268 0.80287 3.4989 14.5 1.3028zm-19.2-4.18c0.51265-2.6459-1.4795-6.25-3.4546-6.25-1.2962 0-1.003 6.442 0.35499 7.8 1.8174 1.8174 2.5148 1.4686 3.0997-1.55zm430.7-0.25c0-0.55-0.675-1-1.5-1s-1.5 0.45-1.5 1 0.675 1 1.5 1 1.5-0.45 1.5-1zm-436.47-4.0909c-0.0358-3.5011-2.1344-5.1118-3.164-2.4285-0.72255 1.8829 1.2414 6.8782 2.4183 6.1508 0.42838-0.26475 0.76396-1.9398 0.74575-3.7223zm-5.45-6.309c-3.9143-4.7164-9.4074-5.4593-8.2456-1.1151 0.90807 3.3954 2.7967 4.3883 3.4624 1.8202 0.36975-1.4264 0.49233-1.3331 0.58398 0.44466 0.0638 1.2375 1.1285 3.2625 2.366 4.5l2.25 2.25 0.31823-3.3153c0.17503-1.8234-0.15576-3.8865-0.73509-4.5845zm28.42 4.01c4.4-0.76388 12.95-1.9186 19-2.566 16.515-1.7672 15.5-1.3287 15.5-6.6992v-4.6186l-5.75 0.6381c-3.1625 0.35096-13.248 1.6168-22.413 2.813l-16.663 2.1748-0.34957 4.3952c-0.48801 6.1359-1.1139 5.9094 10.676 3.8626zm-13.5-4.67c0-3.118-0.38367-4.8219-1-4.441-0.55 0.33992-1 2.6165-1 5.059s0.45 4.441 1 4.441 1-2.2766 1-5.059zm-4.1491-0.57278c0.17-4.39-1.04-7.37-2.97-7.37-0.49 0-0.88 1.38-0.88 3.06 0 1.7847-0.41658 2.8016-1 2.441-0.55-0.33992-1-2.3915-1-4.559 0-4.7719-1.4518-5.1668-2.5404-0.69098l-0.79046 3.25-0.58454-4.4911c-0.62-4.79-4.08-7.4-4.08-3.08 0 1.14-0.48 2.07-1.064 2.07-0.59146 0-0.92454-1.3835-0.75-3.1153 0.29434-2.9206-0.19946-3.4364-7.898-8.25-4.517-2.829-13.325-8.402-19.573-12.39-12.585-8.031-12.715-8.084-12.715-5.25 0 3.227-1.844 2.292-2.187-1.109-0.291-2.894-7.846-8.913-15.813-12.6-0.825-0.38174-3.0253-1.7284-4.8895-2.9925-5.6387-3.8236-7.5703-2.5966-4.9535 3.1467 0.84165 1.8472 1.4916 2.2615 2.3848 1.5202 0.89546-0.74317 1.3958-0.40264 1.8481 1.2578 0.53707 1.9716 5.0408 5.5815 11.685 9.3657 1.0514 0.59883 2.7376 1.8363 3.7472 2.75 1.009 0.913 2.215 1.661 2.678 1.661 0.46338 0 1.5741 0.66205 2.4682 1.4712 0.89413 0.80918 3.7235 2.5867 6.2876 3.95 2.564 1.3633 8.7513 5.4263 13.749 9.0288 4.9981 3.6025 9.2829 6.55 9.5217 6.55 0.61778 0 9.541 5.8959 19.473 12.866 10.316 7.2403 9.6378 7.1368 9.8509 1.5017zm-24.517-16.04c0.36667-0.36666 0.96667-0.36666 1.3333 0 0.367 0.37 0.067 0.67-0.666 0.67-0.73333 0-1.0333-0.3-0.66667-0.66667zm-14.833-9.33c-0.34-0.55-0.141-1 0.441-1s1.059 0.45 1.059 1-0.198 1-0.441 1-0.719-0.45-1.059-1zm-3.9472-1.9146c-0.32198-0.52097-0.15916-1.2106 0.3618-1.5326 0.52097-0.32198 1.2106-0.15916 1.5326 0.3618 0.32198 0.52097 0.15916 1.2106-0.3618 1.5326-0.52097 0.32198-1.2106 0.15916-1.5326-0.3618zm-5.553-4.026c0-0.582 0.45-1.059 1-1.059s1 0.19844 1 0.44098-0.45 0.7191-1 1.059c-0.55 0.33992-1 0.14148-1-0.44098zm-4.4688-2.3521c-0.42806-0.98622-0.4977-2.0737-0.15476-2.4167 1.0155-1.0155 1.8341 0.41095 1.3667 2.3815-0.41435 1.7469-0.46826 1.7485-1.2119 0.03514zm-9.531-6.707c0-1.8667 0.26667-2.1333 1.2-1.2 0.93333 0.93333 0.93333 1.4667 0 2.4-0.933 0.933-1.2 0.667-1.2-1.2zm-5-3.5c0-0.825 0.40186-1.5 0.89301-1.5 0.49116 0 1.152 0.675 1.4686 1.5 0.35062 0.91371 0.0016 1.5-0.89301 1.5-0.808 0-1.469-0.675-1.469-1.5zm-4-2.059c0-0.85746 0.45-1.2809 1-0.94098s1 1.0415 1 1.559c0 0.518-0.45 0.941-1 0.941s-1-0.702-1-1.559zm-5-2.941c0-0.825 0.45-1.5 1-1.5s1 0.675 1 1.5-0.45 1.5-1 1.5-1-0.675-1-1.5zm56 46.559c0-2.7778-1.5051-4.8873-2.6617-3.7307-0.82 0.82 0.706 6.67 1.741 6.67 0.507 0 0.921-1.32 0.921-2.94zm96-0.0114c9.075-1.1503 18.975-2.4999 22-2.9991 3.025-0.49923 9.55-1.456 14.5-2.1262 4.95-0.67015 9.4275-1.6018 9.95-2.0704 1.317-1.181 0.54309-1.1269-15.708 1.098-7.8332 1.0725-17.167 2.1895-20.742 2.4823-25.628 2.0992-31.921 3.2688-30.444 5.6586 0.33669 0.54478 1.3618 0.77848 2.278 0.51935 0.91621-0.25914 9.0908-1.4123 18.166-2.5626zm-100-3.61c0-1.89-0.359-3.44-0.797-3.44s-3.88-2.02-7.648-4.5c-7.76-5.1-8.555-5.32-8.555-2.43 0 4.2658 2.3228 6.88 3.0514 3.4343 0.66298-3.1352 1.2405-2.4691 2.3841 2.75 0.72546 3.3108 2.5284 3.6504 2.6547 0.5 0.06953-1.7345 0.30518-1.5054 1.0286 1 0.96651 3.3473 2.3327 4.1962 3.2189 2 0.27741-0.6875 0.53991-0.3275 0.58333 0.8 0.203 5.28 4.079 5.17 4.079-0.11zm88 0.53792c3.575-0.53949 12.125-1.4246 19-1.9668 6.875-0.54225 17-1.6428 22.5-2.4458 5.5-0.80291 20.575-2.3962 33.5-3.5405 30.544-2.7043 51.241-4.9334 51.897-5.5892 1.3586-1.3586-61.801 2.7683-64.099 4.1883-0.39933 0.2468-11.88 0.87084-25.512 1.3868-13.632 0.51592-28.518 1.6178-33.08 2.4486-4.5617 0.83079-8.6117 1.4638-9 1.4068-2.5692-0.37761-3.7947 0.4338-3.9767 2.6331-0.23423 2.8302-0.21032 2.8342 8.7707 1.4789zm-42.934-1.8927c2.9885-0.50259 10.271-1.4883 16.184-2.1905 10.694-1.27 12.776-2.1179 8.5193-3.4689-1.2269-0.38939-3.3644-1.4976-4.75-2.4626-1.3856-0.96504-7.1777-4.3893-12.871-7.6094-5.7-3.225-11.11-6.31-12.03-6.86s-7.96-4.566-15.65-8.924c-17.002-9.643-32.444-18.432-34.47-19.62-0.825-0.484-6-3.369-11.5-6.412s-12.7-7.11-16-9.039c-14.167-8.279-12.428-7.839-25.908-6.56-6.651 0.631-13.892 1.482-16.092 1.891l-4 0.74483 6 3.8777c3.3 2.134 10.36 6.728 15.69 10.21 5.329 3.483 10.166 6.332 10.75 6.332 0.583 0 1.06 0.394 1.06 0.875 0 0.4813 1.2375 1.4966 2.75 2.2563 1.5125 0.75966 6.0437 3.4034 10.069 5.8749 4.0256 2.4715 8.6692 5.2396 10.319 6.1512 1.6498 0.91162 3.7561 2.3199 4.6807 3.1294 0.92452 0.80955 3.031 2.2149 4.681 3.1229 1.65 0.90805 4.2186 2.4248 5.7081 3.3706 19.234 12.213 28.936 18.282 33.635 21.038 3.1114 1.8252 6.0846 3.7376 6.6071 4.25 1.2123 1.1887 9.6001 1.1977 16.616 0.0177zm3.18-8.75c-2.52-1.02-1.3-3.34 1.75-3.34 2.3333 0 3 0.44444 3 2 0 1.9553-1.8961 2.4893-4.75 1.3377zm-27.55-15.976c-2.1065-2.1065 0.74379-4.8997 3.8022-3.7261 1.62 0.622 2.09 3.362 0.58 3.362-0.50502 0-1.541 0.239-2.3022 0.5311-0.76121 0.2921-1.698 0.2171-2.0818-0.16667zm-26.35-15.895c-0.712-1.856 1.293-3.616 3.65-3.204 0.825 0.14434 1.5 1.1563 1.5 2.2487 0 2.5686-4.2301 3.3534-5.1502 0.95552zm-24.794-12.379c-0.986-1.595 0.59-4.09 2.582-4.09 1.0584 0 2.2008 0.72042 2.5387 1.6009 0.93901 2.447-3.7414 4.722-5.1213 2.4893zm-19.511-13.535c-1.0458-1.2601-0.98527-1.6406 0.34196-2.1499 2.1813-0.83704 4.8765 0.30315 4.3629 1.8457-0.62299 1.8711-3.2628 2.0417-4.7049 0.3042zm378.14 65.765c-0.72188-0.28887-1.5844-0.25335-1.9167 0.0789-0.33229 0.3323 0.25834 0.56864 1.3125 0.52522 1.165-0.048 1.4019-0.28494 0.60417-0.60416zm-240.22-3.8517c8.7839-1.5531 11.764-1.7878 43.644-3.4364 10.514-0.54371 19.769-1.2393 20.568-1.5458 0.7986-0.30645 4.1215-0.7093 7.3842-0.89523 27.272-1.5541 31.509-1.9758 32.558-3.24 1.3016-1.5683 6.4688-1.812 7.3737-0.34784 1.3831 2.2379 47.566 0.27285 49.96-2.1258 3.1721-3.1782-92.283-1.6902-107.15 1.6704-3.4051 0.76964-13.56 1.8415-22.566 2.382-9.0063 0.54044-18.518 1.4629-21.137 2.0498-2.6191 0.58696-6.6393 1.2476-8.9337 1.468-13.46 1.2932-14.861 1.6891-13.051 3.689 2.0021 2.2123 0.89853 2.18 11.351 0.33184zm-105.77-4.05c0.467-4-8.601-12.071-12.438-11.068-1.002 0.262-1.761-0.089-1.761-0.816 0-1.457-11.999-9.654-13.119-8.963-0.7395 0.45704 0.55441 6.1957 1.6422 7.2835 0.8496 0.8496 2.4533-2.0853 1.756-3.2136-0.32921-0.53267-0.05656-0.62348 0.61877-0.2061 0.66401 0.41038 1.0193 1.2674 0.78964 1.9045-0.554 1.536 1.098 4.659 2.464 4.659 0.595 0 0.846-0.9 0.558-2-0.287-1.1-0.115-2 0.384-2 0.498 0 0.906 1.26 0.906 2.8 0 3.5684 1.8298 5.5861 3.6762 4.0538 1.026-0.851 1.324-0.634 1.324 0.966 0 2.9896 1.8758 3.6913 2.8473 1.0651 0.78539-2.1231 0.86404-2.0767 1.4505 0.85532 0.36174 1.8087 1.4154 3.3526 2.5292 3.7061 1.0501 0.33328 2.7133 1.4945 3.6961 2.5804 2.288 2.5282 2.1863 2.5892 2.6763-1.6074zm-6.199-3.42c0-1.8667 0.26667-2.1333 1.2-1.2 0.93333 0.93333 0.93333 1.4667 0 2.4-0.93333 0.93333-1.2 0.66667-1.2-1.2zm-32.581 3.65c-0.45244-1.179-15.245-6.1581-16.013-5.3899-0.85995 0.85995 8.3382 6.5867 11.137 6.9337 3.7952 0.47059 5.4482-0.0528 4.876-1.5438zm521.28-11.371c0.20813-13.615-0.14746-14.908-3.7824-13.754-1.9688 0.62486-2.0488 1.265-1.7642 14.109l0.2982 13.455 2.5231-0.29452 2.53-0.29zm-373.2 8.681c7.15-1.1128 19.975-2.4255 28.5-2.9172 8.525-0.49168 18.875-1.6259 23-2.5204 15.244-3.3058 33.704-3.7404 92.704-2.1822 31.503 0.83198 63.311-2.1486 69.296-6.4935 8.9461-6.4944 49.768-14.586 90.75-17.988 16.953-1.4073 16.9-1.3323 4.3673-6.2165l-9.8827-3.8514-10.737 1.6836c-5.9051 0.92598-11.47 1.8351-12.367 2.0202-12.027 2.4825-17.842 3.5577-24.131 4.4618-10.755 1.5463-40.191 4.8312-49 5.4683-8.619 0.6233-19.63 1.4483-29 2.1729-3.575 0.27646-14.15 0.49589-23.5 0.48763-11.632-0.01027-21.736 0.62994-32 2.0276-8.25 1.1234-18.375 2.3445-22.5 2.7135-4.95 0.44278-7.5 1.0934-7.5 1.9136 0 0.88935-3.1866 1.3718-11.207 1.6965-10.312 0.41757-51.065 5.308-62.793 7.5351-25.171 4.7801-33.398 4.3588-34.311-1.7571-0.55394-3.7122 5.7117-5.3002 38.311-9.7101 10.45-1.4136 26.875-3.6609 36.5-4.9939s21.55-2.9247 26.5-3.537c4.95-0.61237 11.475-1.4762 14.5-1.9195 3.025-0.44338 5.8271-0.61739 6.2269-0.38668 0.39981 0.23071 2.4248-0.02099 4.5-0.55932 3.83-0.992 13.4-2.31 48.27-6.643 35.47-4.407 78.45-10.514 81.99-11.65 5.17-1.657 20.06-4.815 22.71-4.815 1.26 0 2.3-0.45 2.3-1 0-2.3181-59.868 5.3481-101.5 12.997-6.05 1.1116-14.375 2.4738-18.5 3.0272s-10.2 1.4515-13.5 1.9958-16.8 2.36-30 4.0349c-23.108 2.932-58.335 7.8977-84.5 11.911-15.554 2.3858-23.618 3.318-22.953 2.6533 0.28087-0.28087 3.6477-0.98778 7.4819-1.5709 3.83-0.582 12.37-1.951 18.97-3.04 30.65-5.059 43.24-6.894 68.5-9.984 9.075-1.1101 19.425-2.4673 23-3.016 3.575-0.54873 8.525-1.1739 11-1.3893s8.55-1.092 13.5-1.9481c4.95-0.85603 10.575-1.7922 12.5-2.0804s7.1-1.1943 11.5-2.0136 11.603-2.1552 16.008-2.9686c4.4042-0.81346 13.629-2.2007 20.5-3.0827 6.8708-0.88204 17.892-2.4554 24.492-3.4964 14.85-2.3421 18.65-2.8281 28.606-3.6584 8.738-0.72872 9.7608-1.507 4.1436-3.1531-3.6086-1.0574-17.919-0.15809-20.233 1.2715-0.51765 0.31993-5.7958 0.84451-11.729 1.1657-5.9335 0.32123-11.238 0.92165-11.788 1.3343-0.55 0.41261-3.925 1.0666-7.5 1.4532-3.575 0.38667-10.1 1.5353-14.5 2.5525s-12.95 2.5932-19 3.5023c-6.05 0.90908-13.781 2.2913-17.181 3.0716-6.6377 1.5236-16.175 2.962-25.819 3.8938-22.452 2.1693-27.78 2.8398-47.5 5.977-5.225 0.83124-16.025 2.4188-24 3.528s-23.863 3.5952-35.306 5.5245c-11.444 1.9293-21.568 3.4692-22.5 3.4219-3.04-0.15428 3.6425-1.7223 16.6-3.895 6.9886-1.1719 16.082-2.7389 20.207-3.4822 4.125-0.74333 11.55-1.8741 16.5-2.5129 8.8323-1.1398 13.898-1.8917 40-5.9376 12.643-1.9597 24.208-3.3824 37.5-4.6131 3.575-0.33102 12.35-1.6834 19.5-3.0053s16.6-2.8786 21-3.4595c10.655-1.4065 26.781-4.8548 23-4.9181-1.65-0.02764-5.925 0.39802-9.5 0.9459-10.133 1.5529-32.67 4.5742-67 8.982-17.325 2.2244-42.975 5.6285-57 7.5647-39.048 5.3906-53.764 7.3863-62.5 8.476-9.9179 1.2372-18.528 2.3243-38.94 4.9166-8.77 1.112-16.53 2.023-17.25 2.023-2.4183 0-1.3411 1.6149 2.2052 3.306 3.2124 1.5319 4.4844 1.5537 14.75 0.25298 6.1789-0.78291 13.709-1.6593 16.734-1.9474 3.025-0.28818 8.425-0.98462 12-1.5477 7.9071-1.2453 12.246-1.198 6 0.06546-6.0953 1.2329-7.9259 1.4992-19.5 2.8364-20.544 2.3736-24.095 3.1257-21.999 4.6589 2.4851 1.8172 12.363 1.7156 19.999-0.20561 9.2586-2.3296 21.5-4.2323 21.5-3.3418 0 0.44011-2.1375 1.1022-4.75 1.4713-2.6125 0.36911-7.675 1.328-11.25 2.1308-3.575 0.80285-9.425 2.0061-13 2.6738l-6.5 1.2141 6.2828 3.1529c4.9822 2.5002 6.8453 2.9759 9 2.2978 1.4945-0.47027 4.6842-1.0812 7.0883-1.3576 5.4846-0.63064 4.1423 1.1757-1.4574 1.9611-6.9609 0.97636-7.0541 1.3086-1.358 4.8422 6.677 4.142 10.252 4.3304 28.444 1.499zm134.75-11.741c-8.17-0.187-12.25-0.652-12.25-1.395 0-0.8026 5.6687-0.9463 20.25-0.51332 18.914 0.56164 27.222 0.13808 46.75-2.3836 4.125-0.53266 10.425-1.1231 14-1.3122 3.575-0.18905 8.525-0.67602 11-1.0821 2.8503-0.4677 4.1334-0.39028 3.5 0.21118-1.812 1.7207-17.804 4.3068-29 4.6898-6.05 0.20696-14.141 0.89426-17.98 1.5273-3.8391 0.63306-10.814 1.0133-15.5 0.84507-4.69-0.168-14.03-0.432-20.77-0.587zm-42.75-6.31c-1.65-0.36973 14.325-0.7263 35.5-0.79239 37.122-0.11586 53.109-1.0175 73.5-4.1456 3.85-0.5906 20.5-3.0858 37-5.545 16.5-2.4591 37.803-5.6359 47.339-7.0596 12.398-1.8508 17.646-2.2811 18.417-1.5102 1.5135 1.5135 1.0176 1.6178-21.756 4.5744-11 1.4281-28.775 3.9153-39.5 5.5272s-21.75 3.21-24.5 3.5513c-2.75 0.34135-9.24 1.2797-14.422 2.0852-22.933 3.5646-36.443 4.3391-72.614 4.1624-19.78-0.0966-37.314-0.47814-38.964-0.84787zm-96.474 5.1087c4.66-0.541 11.62-1.438 15.47-1.995 3.85-0.55681 16.9-2.3513 29-3.9877s30.1-4.0839 40-5.4389 20.7-2.7444 24-3.0876 10.275-1.2797 15.5-2.0812c5.225-0.80144 23.45-3.252 40.5-5.4457s40.103-5.3276 51.23-6.9642c11.126-1.6366 21.589-2.7038 23.25-2.3716 3.8304 0.76608 4.0899-1.2521 0.26887-2.0913-1.5132-0.33234-18.501 1.6396-37.75 4.3822-33.574 4.7835-61.912 8.5817-86.499 11.594-19.558 2.3962-34.06 4.2925-45 5.8842-5.775 0.84021-16.35 2.2199-23.5 3.0659-7.15 0.84604-17.5 2.1873-23 2.9805-5.5 0.79325-15.625 2.1886-22.5 3.1008-6.875 0.91219-12.928 2.0588-13.45 2.5481-1.2368 1.1581 1.8869 1.1348 12.476-0.09293zm247.97-4.433c12.925-1.9385 36.55-5.3701 52.5-7.6257 32.76-4.6328 32.805-4.6419 30.116-6.1509-1.3551-0.76059-5.8437-0.59825-16 0.57867-7.77 0.9-20.42 2.318-28.12 3.151-14.416 1.56-35.323 4.81-41.5 6.4512-19.215 5.1049-23.638 6.4182-24.5 7.2754-0.66344 0.65936-0.1586 0.80054 1.5 0.41949 1.375-0.31589 13.075-2.1604 26-4.099zm-381.38 0.48c-0.13518-2.6878-7.3852-9.5212-7.729-7.2849-0.71445 4.6463 1.2845 8.1504 3.5683 6.255 1.301-1.079 1.543-0.973 1.543 0.676 0 1.0757 0.3 2.2558 0.66667 2.6224 1.3878 1.3878 2.0943 0.56668 1.9517-2.2683zm-10.11-8.888c-0.59642-1.5378-0.76303-1.5244-2.0041 0.16133-1.2633 1.716-1.3753 1.6544-1.6786-0.92288-0.40573-3.4477-2.8312-4.5259-2.8097-1.2491 0.02776 4.2303 6.1931 9.339 6.8138 5.646 0.181-1.077 0.03636-2.7129-0.32142-3.6354zm-7.508-2.522c0-2.4261-1.8618-4.5507-5.75-6.5617-3.9407-2.0381-3.0096 3.8451 1.0385 6.5623 4.183 2.807 4.712 2.807 4.712-0.001zm99.5 0.84808c7.7-0.79063 21.875-2.5531 31.5-3.9166s21.1-2.9534 25.5-3.5331c4.4-0.57973 16.325-2.1758 26.5-3.5469s29.075-3.8468 42-5.5016 28.45-3.6811 34.5-4.5029 20-2.6418 31-4.0445 28.1-3.6918 38-5.087c20.59-2.9017 22.629-3.1822 46.75-6.4309 9.7625-1.3148 17.75-2.6775 17.75-3.0282 0-1.7929-10.81-3.9631-15.085-3.0284-2.4282 0.53098-7.7899 1.2481-11.915 1.5936-4.7539 0.39816-8.4154 1.2825-10 2.4152-2.3954 1.7123-19.694 4.922-38 7.0507-4.125 0.47968-12.675 1.5876-19 2.4621-6.325 0.87448-14.805 2.0417-18.843 2.5939-7.3 0.36071-12.743 1.1597-19.657 2.3333-7.2813 0.52375-25.47 2.8691-44.288 5.7109-4.0085 0.60532-10.759 1.4842-15 1.953-15.306 1.6918-33.918 4.035-44.212 5.5661-38.972 5.7967-54.201 6.6912-56.314 3.3077-1.4513-2.324-3.9554-2.3483-17.418-0.16931l-10.504 1.7002 2.8473 2.2704c1.8406 1.4676 3.1905 1.9272 3.8179 1.2998 0.53-0.534 2.16-0.971 3.62-0.971 1.4579 0 3.9554-0.41332 5.55-0.91848 4.0942-1.2971 11.814-2.0868 10.77-1.1018-0.47909 0.45204-4.4406 1.5485-8.8033 2.4366-8.661 1.7631-9.0805 1.9451-8.1089 3.5171 0.8041 1.3011-0.0259 1.322 17.041-0.4304zm-109.48-1.986c-1.283-1.365-3.274-2.774-4.424-3.131-1.151-0.357-3.3554-1.538-4.8996-2.626-3.0893-2.177-4.7165-1.626-3.0694 1.038 1.1667 1.887 10.951 7.202 13.258 7.202 1.0584 0 0.81718-0.69266-0.86458-2.4828zm341.48 0.928c22.709-1.1859 72.493-6.6443 88-9.6482 6.845-1.326 10.284-3.3642 4-2.3704-4.9496 0.78269-7.7295 1.1316-29 3.64-23.009 2.7134-35.381 3.8066-45.5 4.0203-10.946 0.23122-42.196 3.9483-43.5 5.1742-0.6263 0.58877 1.9896 0.7193 7 0.3493 4.4-0.32492 12.95-0.84928 19-1.1652zm-340.5-4.863c0-2.464-1.166-4.582-2.524-4.582-0.72 0-1.459-0.356-1.643-0.791-1.533-3.642-9.833-7.291-9.833-4.324 0 1.802 4.6834 5.802 6.25 5.337 0.4125-0.122 0.75 0.143 0.75 0.589 0 1.422 4.022 5.189 5.539 5.189 0.804 0 1.461-0.638 1.461-1.418zm498.19-4.791c-0.62074-0.62074-0.86637 0.22628-0.6878 2.3718 0.37408 4.4949 0.71274 4.9001 1.225 1.4656 0.23559-1.5795-0.006-3.3063-0.53721-3.8374zm17.885 4.704c22.193-3.2046 20.388-2.6937 20.752-5.8739 0.5587-4.8767 0.49783-4.8781-23.828-0.56907-11.225 1.9884-11 1.8849-11 5.0566 0 3.4468-0.11496 3.4355 14.076 1.3864zm-504.08-3.936c0-3.714-1.637-5.668-2.615-3.12-0.774 2.017 0.358 6.561 1.634 6.561 0.54 0 0.981-1.548 0.981-3.441zm482.99 2.191c-0.0359-3.2869-1.3651-5.75-3.103-5.75-2.1351 0-2.2958 0.78492-0.90812 4.4349 0.99013 2.6043 4.0361 3.6029 4.0111 1.3151zm-405.85-1.213c4.2042-0.8045 10.289-1.6397 13.522-1.8561 3.2327-0.21635 7.2179-1.0765 8.8559-1.9116 1.6381-0.835 7.7033-2.0488 13.478-2.6973 5.775-0.6485 12.525-1.5654 15-2.0374 14.081-2.6859 17.129-3.3982 23.5-5.492 27.4-9.0055 66.88-19.458 85.132-22.54 6.53-1.102 15.92-2.894 20.87-3.982 4.95-1.0881 14.625-2.8899 21.5-4.0041s14.3-2.494 16.5-3.0664c2.2-0.57232 10.975-2.0362 19.5-3.2531 13.522-1.9301 21.16-4.4218 12.5-4.0778-7.4192 0.29467-39.494 3.5658-44 4.4873-10.138 2.0734-33.08 5.8581-35.615 5.8755-1.4383 0.0099-3.8187 0.96472-5.2897 2.1218-2.016 1.5858-3.4845 1.9519-5.9639 1.4868-1.8091-0.33939-6.6287 0.02699-10.71 0.81419-4.0815 0.7872-14.171 2.6416-22.421 4.1209s-19.275 3.7364-24.5 5.0158-13.1 3.0002-17.5 3.8241c-7.5391 1.4117-19.364 4.5951-29.5 7.9419-7.493 2.4741-23.753 6.4834-37.5 9.2468-7.15 1.4372-16.15 3.451-20 4.4749-3.85 1.024-9.1788 2.1686-11.842 2.5436l-4.8419 0.68181 3.8419 1.7917c4.8224 2.249 6.0869 2.2891 15.486 0.49055zm297.86-0.574c5.225-0.5384 14.225-1.6482 20-2.4662 5.775-0.81801 17.7-2.1698 26.5-3.004 24.581-2.3302 24.173-2.1803 15.354-5.6359-5.4208-2.1241-7.8799-2.6359-9.3541-1.947-1.1 0.51402-5.825 1.2261-10.5 1.5823-20.31 1.5477-21.911 1.8651-24.283 4.8151-2.1104 2.624-3.1001 2.8755-20.657 5.2483-17.758 2.3999-26.452 4.434-13.06 3.0554 3.575-0.368 10.775-1.1096 16-1.648zm-258.5-1.4357c13.488-1.9939 23.431-3.2513 51.5-6.5123 14.025-1.6294 28.2-3.4232 31.5-3.9862 3.3-0.56297 9.825-1.5027 14.5-2.0883 4.675-0.58559 13.675-1.7363 20-2.5571 13.034-1.6915 25.376-3.2222 32-3.9689 8.2942-0.93497 42.321-5.4055 60.313-7.924 12.578-1.7607 18.363-2.1991 19.684-1.4919 2.3688 1.2677 3.003 1.2613 3.003-0.03064 0-1.9005-4.1916-2.6106-10.373-1.7575-3.3698 0.46508-14.677 1.9446-25.127 3.2878s-26.553 3.4152-35.784 4.6044c-9.2314 1.1892-17.039 1.9075-17.35 1.5964-1.3635-1.3635 1.0854-2.61 6.4002-3.2577 3.1538-0.38433 8.4427-1.5268 11.753-2.5388 3.3104-1.012 13.66-3.4364 23-5.3875 9.35-1.951 17.67-3.753 18.49-4.005 0.825-0.25152 9.1447-1.3864 18.488-2.522 9.3436-1.1356 17.444-2.5492 18-3.1413 1.4176-1.5086-9.9476-0.58156-31.222 2.5467-9.4786 1.3938-24.041 3.2462-32.361 4.1165-8.3202 0.87032-20.815 2.6634-27.766 3.9846-6.9512 1.3212-16.239 3.0917-20.639 3.9344-15.848 3.0353-43.515 9.9562-42.765 10.698 0.42102 0.41677 6.6155-0.07314 13.765-1.0887 35.573-5.0525 45.51-6.2227 45.51-4.4879 0 1.4596-2.831 2.0312-31.51 5.4919-4.4 0.53095-14.75 1.8283-23 2.8829-8.25 1.0547-35.25 4.4414-60 7.5262-47.462 5.9154-47.961 5.9947-47.045 7.4759 0.59685 0.96572 1.5992 0.88339 17.045-1.4zm-120.5-0.593c0-2.545-1.733-5.934-3.035-5.934-1.075 0-1.297 3.972-0.358 6.418 0.882 2.298 3.393 1.94 3.393-0.484zm480 0.5c0-2.125-1.85-5.434-3.04-5.434-1.0833 0-1.3328 5.2987-0.29815 6.3333 1.25 1.241 3.34 0.677 3.34-0.899zm-6.51-2.184c-0.18426-0.9625-0.36944-2.5375-0.41152-3.5-0.05-0.962-0.76-1.75-1.58-1.75-1.8619 0-2.0827 5.5982-0.25 6.3377 2.1979 0.88689 2.5804 0.70098 2.238-1.0877zm-478.49-2.691c0-1.893-0.45-3.719-1-4.059-0.604-0.373-1 0.99-1 3.441 0 2.232 0.45 4.059 1 4.059s1-1.5484 1-3.441zm82-0.56357c8.6971-2.0793 14.668-3.2834 17.5-3.5291 1.1-0.09544 8.3-1.5982 16-3.3394 13.09-2.9601 19.989-4.851 33.5-9.1817 9.0108-2.8882 20.166-5.7467 25.5-6.534 2.75-0.40596 5.45-0.84327 6-0.97181s4.1383-0.9719 7.9741-1.8741c12.28-2.888 25.39-5.416 52.03-10.038 21.51-3.732 19.93-4.477-3.36-1.583-8.6 1.069-20.14 2.435-25.64 3.036-18.444 2.0147-24.938 3.1925-36 6.5284-18.064 5.4476-32.186 9.2068-47 12.511-7.7 1.7175-15.125 3.5077-16.5 3.9783-1.375 0.47059-4.975 1.3836-8 2.0288-3.025 0.64526-10.225 2.4672-16 4.0487s-12.75 3.3401-15.5 3.9079c-8.7774 1.8123-9.5 2.0377-9.5 2.9639 0 1.2419 9.8931 0.22589 19-1.9513zm390.59-2.6196c-0.93122-2.4267-2.3688-0.66558-1.8162 2.225 0.43211 2.2605 0.64456 2.4016 1.4496 0.96313 0.51879-0.92703 0.68377-2.3617 0.36663-3.1881zm41.91 2.98c14.771-2.0281 15.449-2.5583 6.8389-5.3505-8.4-2.724-39.01-13.445-45.84-16.057-2.75-1.051-12.88-4.638-22.5-7.971-9.62-3.334-26.05-9.172-36.5-12.974s-25.52-9.2074-33.5-12.011l-14.5-5.0981-10.48 1.1209c-11.81 1.2627-12.462 1.4957-8.4046 3.0043 11.03 4.1059 27.45 10.464 30.38 11.765 1.925 0.8567 7.775 3.0986 13 4.9821 17.91 6.4561 59.802 22.487 90 34.441 16.54 6.5474 15.255 6.3783 31.5 4.1479zm-27.45-11.795c-1.0489-1.2639-0.99943-1.6422 0.27909-2.1328 2.3937-0.91856 5.171-0.0665 5.171 1.5864 0 2.0415-3.886 2.4311-5.4501 0.5464zm-36.8-12.222c-1.8853-0.76074-1.4995-3.0392 0.60797-3.5903 2.35-0.615 5.14 0.905 5.14 2.802 0 1.4204-3.1222 1.8483-5.75 0.78803zm-31.8-12.425c-1.0347-1.6742 1.106-3.1898 3.4532-2.4448 2.93 0.931 2.68 3.532-0.34 3.532-1.3425 0-2.7433-0.48921-3.1129-1.0871zm-25.903-9.8438c-0.31644-0.512-0.11397-1.216 0.44993-1.5645 1.4256-0.88108 5.1645 0.43211 4.4629 1.5674-0.74349 1.203-4.1688 1.201-4.9128-0.0029zm-18.3-6.7873c-1.97-0.7078-1.46-2.2817 0.75-2.2817 1.1 0 2 0.42344 2 0.94098 0 1.28-1.2374 1.8833-2.75 1.3407zm-378.04 49.719c-0.25233-1.7192-0.95396-2.9114-1.5833-2.6903-1.0638 0.37381-1.0989 2.5273-0.08969 5.503 0.83442 2.4604 2.1277 0.2859 1.673-2.8127zm85.287-2.057c11.55-2.7846 28.425-6.8898 37.5-9.1227s20.1-4.8581 24.5-5.8338c11.201-2.4839 17.146-4.491 19.106-6.4506 1.0159-1.0159 2.5394-1.4663 3.8488-1.1377 2.1736 0.54554 10.122-1.1561 9.2892-1.9887-0.71822-0.71822-29.75 3.3971-35.712 5.0623-3.0074 0.83993-6.3824 1.5309-7.5 1.5355-2.45 0.01-37.62 8.868-49.53 12.474-4.675 1.415-13.43 3.623-19.454 4.907l-10.954 2.3332 2.9545 1.599c3.9277 2.1258 2.1951 2.3512 25.954-3.3769zm386.32 2.3831c-0.41-3.444-2.82-4.365-2.82-1.077 0 2.5344 0.72389 3.75 2.2331 3.75 0.49486 0 0.75736-1.2028 0.58333-2.6729zm-475.37-1.688c0.13-2.98-1.715-5.212-3.432-4.151-0.5877 0.363-0.9449 0.121-0.7938-0.539 0.1512-0.659-0.3198-1.416-1.0465-1.681-0.96126-0.35073-1.2338 0.41177-1 2.798 0.35475 3.621 2.3855 5.0781 3.1214 2.2395 0.2573-0.994 0.5201-0.306 0.5839 1.527 0.14 4.031 2.389 3.861 2.567-0.194zm470.14-0.123c-0.55-3.053-1.41-4.516-2.65-4.516-1.0626 0-1.2495 3.0325-0.33399 5.4182 1.0222 2.6637 3.4928 1.9166 2.9818-0.90172zm-261.59-6.465c6.325-1.6544 16.675-4.3739 23-6.0434 19.79-5.225 55.64-11.998 77-14.546 25.83-3.084 50.45-6.355 55-7.308l3.5-0.73314-7.054-2.6167c-5.8631-2.1749-7.8046-2.4735-11.5-1.7687-2.4453 0.46638-9.846 1.5752-16.446 2.4641-6.6 0.88885-14.925 2.2611-18.5 3.0494-3.575 0.78834-9.2 1.8656-12.5 2.3939-8.9151 1.4272-16.993 2.9685-26.5 5.0564-4.675 1.0267-10.75 2.152-13.5 2.5008-9.4428 1.1975-55.899 12.274-67 15.975-3.85 1.2835-11.612 3.5882-17.25 5.1214-5.6375 1.5333-10.25 3.0764-10.25 3.4293 0 1.1343 30.12-3.868 42-6.9753zm211.5 5.438c6.05-0.80969 13.025-1.4828 15.5-1.4958 6.7003-0.03517 8.2807-1.529 3.2212-3.0449-4.2964-1.2872-5.8688-1.109-24.471 2.7746-14.016 2.9259-10.647 3.9606 5.75 1.7661zm44.335-2.6132c-0.47-3.26-3.84-3.831-3.84-0.649 0 2.7986 2.0032 5.1701 3.2847 3.8887 0.48657-0.48657 0.73407-1.9445 0.55-3.2398zm-471.84-0.817c0-4.247-1.709-4.677-2.1907-0.551-0.281 2.407-0.0039 3.492 0.8915 3.492 0.7711 0 1.2992-1.195 1.2992-2.941zm81.068 0.919c4.087-1.113 11.707-3.205 16.932-4.649 5.225-1.4446 15.909-4.2809 23.742-6.3029 13.289-3.4304 20.208-6.071 12.258-4.6779-1.925 0.33731-11.6 1.519-21.5 2.626-12.593 1.4081-21.755 3.0648-30.5 5.5152-6.875 1.9264-14.75 4.0076-17.5 4.6249-6.1357 1.3774-6.3317 1.5452-3.927 3.3645 2.7665 2.093 11.771 1.8729 20.495-0.50093zm384.92 0.272c-0.0372-2.0432-1.3217-5.25-2.103-5.25-1.0263 0-1.2029 4.3471-0.2167 5.3333 0.89795 0.89795 2.3366 0.84627 2.3197-0.08333zm-6.1699-3.9229c-0.41-3.444-2.82-4.365-2.82-1.077 0 2.5344 0.72389 3.75 2.2331 3.75 0.49486 0 0.75736-1.2028 0.58333-2.6729zm-392.32-1.984c9.9045-2.3942 17.689-5.4787 10-3.9625-1.65 0.32538-7.275 1.0618-12.5 1.6364-13.844 1.5225-17.692 2.8712-12.25 4.2934 3.0724 0.8029 3.5576 0.73818 14.75-1.9673zm386.5-0.343c0-1.65-0.45-3-1-3-1.1123 0-1.3802 4.2865-0.33333 5.3333 1.13 1.13 1.33 0.774 1.33-2.333zm-4 0.0651c0-2.393-2.1-6.065-3.48-6.065-1.8379 0-2.0652 4.0595-0.32475 5.8 1.4248 1.4248 3.8 1.5905 3.8 0.2651zm-7.1836-4.8065c-0.42-3.601-3.82-4.491-3.82-0.998 0 2.745 0.73 3.74 2.73 3.74 0.93623 0 1.295-0.90783 1.0833-2.7414zm-7.0031-2.4315c-0.17235-1.7451-0.81856-3.3385-1.436-3.5409-1.5119-0.49546-2.3426 3.0246-1.1969 5.0718 1.514 2.7053 2.9678 1.86 2.6329-1.531zm-5.5714-2.3418c-0.5924-3.0989-2.0514-4.1454-2.856-2.0486-0.81 2.113 0.23 4.565 1.94 4.565 0.94852 0 1.2394-0.80207 0.91199-2.5148zm-96.59-0.437c16.54-2.3007 43.013-5.6191 52.666-6.6018 3.754-0.38214 6.454-1.0273 6-1.4337-2.0923-1.8731-7.2187-2.6894-12.337-1.9646-3.0185 0.42746-10.213 1.4613-15.988 2.2973-5.775 0.83606-12.075 1.7314-14 1.9896-12.435 1.6682-37.331 7.3835-32.939 7.5618 1.4085 0.05717 8.8777-0.77472 16.598-1.8486zm91.34-1.488c0-2.6679-1.4873-4.1975-2.4954-2.5664-0.81 1.315 0.34 5.007 1.57 5.007 0.51 0 0.93-1.098 0.93-2.441zm-35.5-1.0824c10.288-0.81675 12.82-1.4473 9.9836-2.4863-2.0151-0.73819-22.762 0.53043-25.456 1.5565-2.527 0.96266 1.008 2.5675 4.472 2.0302 1.65-0.25593 6.6-0.75113 11-1.1004zm30.5-1.008c0-1.3923-0.69441-2.7979-1.5431-3.1235-2.1608-0.82917-2.8028 0.14053-2.0579 3.1084 0.8424 3.3564 3.601 3.368 3.601 0.01519zm-11-2.887c0-2.169-1.11-4.582-2.11-4.582-1.0334 0-1.2176 4.342-0.22634 5.3333 1.13 1.129 2.34 0.741 2.34-0.751zm4.8233-0.24892c-0.48-2.509-2.82-2.853-2.82-0.416 0 1.228 0.65 2.083 1.57 2.083 0.93124 0 1.4414-0.68037 1.25-1.6671zm-9.82-2.711c0-2.4822-2.2039-5.0852-3.342-3.9471-1.1347 1.1347-0.71654 5.1344 0.59201 5.6624 2.3216 0.93677 2.75 0.66955 2.75-1.7153zm-6-1.5407c0-1.73-1.21-4.081-2.11-4.081-0.49 0-0.89 1.125-0.89 2.5 0 1.5556 0.56667 2.5 1.5 2.5 0.825 0 1.5-0.4132 1.5-0.91821zm-5.5-3.581c0-1.0849-0.7875-2.1243-1.75-2.3096-1.31-0.252-1.75 0.328-1.75 2.31 0 1.9823 0.43925 2.5621 1.75 2.3096 0.9625-0.18536 1.75-1.2247 1.75-2.3096zm-5.5-2.5c0-1.65-0.45-3-1-3s-1 1.35-1 3 0.45 3 1 3 1-1.35 1-3zm-4.468-1.8993c-0.36-1.156-1.08-2.101-1.6-2.101-1.0722 0-1.2738 4.3255-0.24928 5.35 1.2197 1.2197 2.5339-1.0902 1.8486-3.2493zm-4.7124-1.2723c-0.47-3.202-2.82-3.545-2.82-0.412 0 1.68 0.55 2.583 1.57 2.583 1.0423 0 1.4622-0.72946 1.25-2.1717zm-5.3022-3.6367c-0.60195-1.5622-0.72922-1.5537-1.6636 0.11077-0.72394 1.2897-0.6337 2.2584 0.31725 3.4057 1.5905 1.9189 2.5126-0.4897 1.3463-3.5165zm-8.52-1.775c0-1.6226-0.47-2.4286-1.25-2.167-0.6875 0.22917-1.1375 0.71667-1 1.0833 0.14 0.367 0.25 1.342 0.25 2.167s0.45 1.5 1 1.5 1-1.1625 1-2.5833zm4.5538 1.4962c0.36954-0.59792 0.15236-1.6067-0.48262-2.2416-1.2542-1.2542-3.4083 0.97443-2.4462 2.531 0.69877 1.1306 2.1392 0.98831 2.9288-0.28939zm-8.55-3.413c0-0.825-0.45-1.5-1-1.5s-1 0.675-1 1.5 0.45 1.5 1 1.5 1-0.675 1-1.5zm-3-0.941c0-0.7925-0.45-1.7191-1-2.059s-1 0.3085-1 1.441c0 1.1324 0.45 2.059 1 2.059s1-0.64844 1-1.441z"/>
</svg>
